<svg xmlns="http://www.w3.org/2000/svg" viewBox="0 0 100.7 88.1" enable-background="new 0 0 100.7 88.1"><style type="text/css">.st0{fill:#0080B2;}</style><path class="st0" d="M96 0h-91.3c-2.6 0-4.7 2.1-4.7 4.7v66.1c0 2.6 2.1 4.7 4.7 4.7h44v9.4h-24.3c-.9 0-1.6.7-1.6 1.6 0 .9.7 1.6 1.6 1.6h51.9c.9 0 1.6-.7 1.6-1.6 0-.9-.7-1.6-1.6-1.6h-24.4v-9.4h44c2.6 0 4.7-2.1 4.7-4.7v-66.1c.1-2.6-2-4.7-4.6-4.7zm-91.3 3.1h91.3c.9 0 1.6.7 1.6 1.6v7.9h-94.5v-7.9c0-.8.8-1.6 1.6-1.6zm91.3 69.3h-91.3c-.9 0-1.6-.7-1.6-1.6v-55.1h94.4v55.1c0 .9-.7 1.6-1.5 1.6z"/><circle class="st0" cx="91.2" cy="7.9" r="1.6"/><circle class="st0" cx="84.9" cy="7.9" r="1.6"/><circle class="st0" cx="78.7" cy="7.9" r="1.6"/><path class="st0" d="M89.7 22h-44c-.9 0-1.6.7-1.6 1.6v22c0 .9.7 1.6 1.6 1.6h44c.9 0 1.6-.7 1.6-1.6v-22c-.1-.9-.8-1.6-1.6-1.6zm-1.6 22h-40.9v-18.8h40.9v18.8zM9.4 45.9v.2l.1.1.1.1.1.1.1.1.1.1.1.1.2.1.1.1.3.1h.1l.4.1h25.6c.1 0 .2 0 .3-.1l.1-.1.2-.1.1-.1.1-.1.1-.1.1-.3.1-.1.1-.1v-.4l.1-.1v-22.500000000000004l-.1-.1-.1-.1-.1-.1-.1-.1-.1-.1-.1-.1-.4-.1-.1-.1h-26.300000000000004l-.1.1-.1.1-.1.1h-.3l-.1.1-.1.1-.1.1-.1.1-.1.1v.4l-.1.1v22.400000000000002zm25.2-3.7l-8.6-7.6 8.7-7.5v15.1zm-2.6 1.8h-16.8l8.4-7.3 8.4 7.3zm-8.4-11.5l-8.4-7.3h16.8l-8.4 7.3zm-2.4 2.1l-8.7 7.5v-15l8.7 7.5zM11 56.6h39.3c.9 0 1.6-.7 1.6-1.6 0-.9-.7-1.6-1.6-1.6h-39.3c-.9 0-1.6.7-1.6 1.6 0 .9.7 1.6 1.6 1.6zM89.7 53.5h-29.9c-.9 0-1.6.7-1.6 1.6 0 .9.7 1.6 1.6 1.6h29.9c.9 0 1.6-.7 1.6-1.6-.1-.9-.8-1.6-1.6-1.6zM37.8 62.9h-26.8c-.9 0-1.6.7-1.6 1.6 0 .9.7 1.6 1.6 1.6h26.7c.9 0 1.6-.7 1.6-1.6 0-.9-.7-1.6-1.5-1.6zM89.7 62.9h-42.5c-.9 0-1.6.7-1.6 1.6 0 .9.7 1.6 1.6 1.6h42.5c.9 0 1.6-.7 1.6-1.6-.1-.9-.8-1.6-1.6-1.6z"/></svg>