<svg xmlns="http://www.w3.org/2000/svg" viewBox="0 0 106.1 87" enable-background="new 0 0 106.1 87"><style type="text/css">.st0{fill:#0080B2;}</style><path class="st0" d="M77.3 15.9h-1.4c-4.7-9.7-14.5-15.9-25.3-15.9-15.4 0-28 12.6-28 28 0 1.8.2 3.5.5 5.2-.8-.1-1.5-.1-2.3-.1-11.5 0-20.8 9.3-20.8 20.8 0 11.4 9.3 20.8 20.8 20.8h23.8c1.2 0 2.1-1 2.1-2.1 0-1.2-1-2.1-2.1-2.1h-23.8c-9.1 0-16.5-7.4-16.5-16.5s7.4-16.5 16.5-16.5c1.5 0 3.1.2 4.6.7.8.2 1.6 0 2.1-.6s.7-1.4.5-2.1c-.8-2.4-1.1-4.8-1.1-7.3 0-13.1 10.7-23.7 23.7-23.7 9.7 0 18.3 5.8 21.9 14.8.4.9 1.3 1.4 2.2 1.3.8-.1 1.6-.1 2.5-.1 13.6 0 24.6 11 24.6 24.6 0 13.9-11.3 25.6-24.6 25.6h-15.7c-1.2 0-2.1 1-2.1 2.1 0 1.2 1 2.1 2.1 2.1h15.7c15.6 0 28.8-13.7 28.8-29.8.1-16.2-12.8-29.2-28.7-29.2zM64.6 58.1c.8.8 2.2.8 3 0 .8-.8.8-2.2 0-3l-13-13c-.2-.2-.4-.4-.7-.5-.5-.2-1.1-.2-1.6 0-.3.1-.5.3-.7.5l-13 13c-.8.8-.8 2.2 0 3 .4.4 1 .6 1.5.6s1.1-.2 1.5-.6l9.4-9.4v36.2c0 1.2 1 2.1 2.1 2.1s2.1-1 2.1-2.1v-36.2l9.4 9.4z"/></svg>