<svg xmlns="http://www.w3.org/2000/svg" viewBox="0 0 81.2 89.6" enable-background="new 0 0 81.2 89.6"><style type="text/css">.st0{fill:#0080B2;}</style><path class="st0" d="M57.1 56.3c-1 1-2 1.8-3.2 2.5 6.8.1 14 4.3 14 12.1v14.8c0 .6-.5 1.2-1.2 1.2h-41c-.6 0-1.2-.5-1.2-1.2v-14.8c0-7.7 7.1-12 14-12.1-1.2-.7-2.3-1.5-3.2-2.5-7.1 1.3-13.6 6.5-13.6 14.6v14.8c0 2.2 1.8 4 4 4h41.1c2.2 0 4-1.8 4-4v-14.8c-.1-8.1-6.5-13.3-13.7-14.6zM74.5 0h-67.8c-3.6-.1-6.6 2.8-6.7 6.4v30.9c0 3.7 3 6.7 6.6 6.7h2.6l10 11.5c.5.6 1.4.6 2 .1.3-.3.5-.7.5-1.1v-10.4h9.2c.1-.9.3-1.9.5-2.8h-11.1c-.8 0-1.4.6-1.4 1.4v8.2l-8-9.1c-.3-.3-.7-.5-1.1-.5h-3.2c-2.1-.1-3.8-1.8-3.8-3.9v-31c.1-2.1 1.8-3.7 3.9-3.6h67.8c2.1-.1 3.8 1.5 3.9 3.6v30.9c0 1.8-2.8 3.9-5.1 3.9h-12.3c.3.9.4 1.9.5 2.8h11.7c3.6 0 7.9-3.1 7.9-6.7v-30.9c0-3.6-3-6.5-6.6-6.4zM46.2 58.1c7 0 12.6-5.6 12.6-12.6s-5.6-12.6-12.6-12.6-12.6 5.6-12.6 12.6 5.6 12.6 12.6 12.6zm0-22.4c5.4 0 9.8 4.4 9.8 9.8s-4.4 9.8-9.8 9.8-9.8-4.4-9.8-9.8 4.4-9.8 9.8-9.8zM16.1 14.7h49c.8 0 1.4-.6 1.4-1.4s-.6-1.4-1.4-1.4h-49c-.8 0-1.4.6-1.4 1.4s.6 1.4 1.4 1.4zM16.1 20.3h49c.8 0 1.4-.6 1.4-1.4s-.6-1.4-1.4-1.4h-49c-.8 0-1.4.6-1.4 1.4s.6 1.4 1.4 1.4zM16.1 25.9h49c.8 0 1.4-.6 1.4-1.4s-.6-1.4-1.4-1.4h-49c-.8 0-1.4.6-1.4 1.4s.6 1.4 1.4 1.4zM42.9 60.5l-2.3 14.6c-.1.9.2 1.8.8 2.5l2.7 2.7c1.2 1.2 3 1.2 4.2 0l2.6-2.5c.7-.6 1-1.6.9-2.5l-2.2-14.8c-.9.2-1.8.3-2.8.4l2.2 14.8v.1l-2.6 2.5c-.1.1-.2.1-.3 0l-2.7-2.7v-.1l2.3-14.7c-.9.1-1.9-.1-2.8-.3z"/></svg>