<svg xmlns="http://www.w3.org/2000/svg" viewBox="0 0 88.9 88.9" enable-background="new 0 0 88.9 88.9"><style type="text/css">.st0{fill:#0080B2;}</style><path class="st0" d="M81.5 0h-74.1c-4.1 0-7.4 3.3-7.4 7.4v74.1c0 4.1 3.3 7.4 7.4 7.4h74.1c4.1 0 7.4-3.3 7.4-7.4v-74.1c0-4.1-3.3-7.4-7.4-7.4zm-74.1 3h74.1c2.5 0 4.4 2 4.4 4.4v4.4h-82.9v-4.4c0-2.4 2-4.4 4.4-4.4zm74.1 82.9h-74.1c-2.5 0-4.4-2-4.4-4.4v-66.7h83v66.7c-.1 2.4-2.1 4.4-4.5 4.4zM5.9 5.9h3v3h-3zM11.9 5.9h3v3h-3zM17.8 5.9h3v3h-3zM13.3 80c-.8 0-1.5-.7-1.5-1.5v-56.3c0-.8.7-1.5 1.5-1.5s1.5.7 1.5 1.5v56.3c0 .8-.6 1.5-1.5 1.5zM26.7 32.6c-.4 0-.8-.2-1-.4l-4.4-4.4c-.6-.6-.6-1.5 0-2.1l4.4-4.4c.6-.6 1.5-.6 2.1 0 .6.6.6 1.5 0 2.1l-3.4 3.4 3.4 3.4c.6.6.6 1.5 0 2.1-.4.1-.7.3-1.1.3zM38.5 32.6c-.8 0-1.5-.7-1.5-1.5 0-.4.2-.8.4-1l3.4-3.4-3.4-3.4c-.6-.6-.6-1.5 0-2.1.6-.6 1.5-.6 2.1 0l4.4 4.4c.6.6.6 1.5 0 2.1l-4.4 4.4c-.2.3-.6.5-1 .5zM31.1 34.1h-.4c-.8-.2-1.3-1-1.1-1.8l3-11.9c.2-.8 1-1.3 1.8-1.1.8.2 1.3 1 1.1 1.8l-3 11.9c-.1.6-.7 1.1-1.4 1.1zM25.2 40h5.9v3h-5.9zM34.1 40h8.9v3h-8.9zM31.1 45.9h28.2v3h-28.2zM63.7 45.9h13.3v3h-13.3zM31.1 51.9h3v3h-3zM37 51.9h26.7v3h-26.7zM66.7 51.9h10.4v3h-10.4zM25.2 57.8h5.9v3h-5.9zM34.1 57.8h8.9v3h-8.9zM31.1 63.7h28.2v3h-28.2zM63.7 63.7h13.3v3h-13.3zM31.1 69.6h16.3v3h-16.3zM50.4 69.6h3v3h-3zM59.3 69.6h11.9v3h-11.9zM25.2 77h5.9v3h-5.9zM34.1 77h8.9v3h-8.9z"/></svg>