<svg xmlns="http://www.w3.org/2000/svg" viewBox="0 0 738.6 765" enable-background="new 0 0 738.6 765"><style type="text/css">.st0{opacity:0.52;fill:#FFFFFF;} .st1{fill:none;stroke:#DFE5EA;stroke-miterlimit:10;} .st2{fill:none;stroke:#FFFFFF;stroke-miterlimit:10;} .st3{fill:url(#SVGID_1_);} .st4{fill:url(#SVGID_2_);} .st5{fill:url(#SVGID_3_);} .st6{fill:#DFE5EA;} .st7{fill:url(#SVGID_4_);} .st8{fill:url(#SVGID_5_);} .st9{fill:url(#SVGID_6_);} .st10{fill:#FFFFFF;} .st11{fill:url(#SVGID_7_);} .st12{fill:url(#SVGID_8_);} .st13{fill:url(#SVGID_9_);} .st14{fill:url(#SVGID_10_);} .st15{fill:#00BEEF;} .st16{fill:#F9FFFF;} .st17{opacity:0.78;fill:#FFFFFF;} .st18{opacity:0.82;fill:#FFFFFF;} .st19{opacity:0.6;fill:#FFFFFF;} .st20{fill:#F8F9FA;} .st21{fill:url(#SVGID_11_);}</style><path class="st0" d="M602.2 95l66.1 36.5c.1.1.3.1.4 0l69.8-39.3c.2-.1.2-.5 0-.6l-66.2-36.6c-.1-.1-.3-.1-.4 0l-69.8 39.3c-.2.2-.2.5.1.7z"/><path class="st1" d="M284.4 535.1l12.7 8.2"/><path class="st2" d="M161.1 612.9l19.2 11.2c2 1.2 4.5 1.1 6.5-.1l62.9-38.8c2-1.2 4.5-1.3 6.5-.1l30.5 17.5M377.9 644.5l15.5 9.2c2 1.1 4.5 1.1 6.5-.1l40.9-24.2c2-1.2 4.5-1.2 6.5-.1l21.5 11.9M220.4 574l10.4 6.3c2 1.2 4.5 1.2 6.5.1l14.6-8.2c2-1.1 4.4-1.1 6.4.1l17.7 10.3M371.9 635.4l17.4 10c2.6 1.5 3.8 4.5 3 7.3l-3.3 12.1c-.8 2.9.5 5.9 3.1 7.4l40.5 22.6"/><path class="st2" d="M248.1 626.4l93.1 53.7c1 .5 2.4.6 3.3.1l93.3-53.8c1.5-.8 1.5-2.9 0-3.8l-93.8-54.1c-.7-.4-1.5-.4-2.2 0l-93.7 54.1c-1.4.8-1.4 2.9 0 3.8zM97.3 609.3l45.8 26.5c.5.2 1.2.3 1.6 0l45.9-26.5c.7-.4.7-1.4 0-1.9l-46.2-26.7c-.3-.2-.7-.2-1.1 0l-46.2 26.7c-.5.4-.5 1.5.2 1.9zM314.2 737.9l45.8 26.5c.5.2 1.2.3 1.6 0l45.9-26.5c.7-.4.7-1.4 0-1.9l-46.2-26.7c-.3-.2-.7-.2-1.1 0l-46 26.7c-.7.4-.7 1.5 0 1.9zM379.9 698.9l45.8 26.5c.5.2 1.2.3 1.6 0l45.9-26.5c.7-.4.7-1.4 0-1.9l-46.2-26.7c-.3-.2-.7-.2-1.1 0l-46.2 26.7c-.5.5-.5 1.5.2 1.9zM445.6 659.4l45.8 26.5c.5.2 1.2.3 1.6 0l45.9-26.5c.7-.4.7-1.4 0-1.9l-46.2-26.7c-.3-.2-.7-.2-1.1 0l-46.2 26.7c-.5.5-.5 1.5.2 1.9zM163.1 570.8l45.8 26.5c.5.2 1.2.3 1.6 0l45.9-26.5c.7-.4.7-1.4 0-1.9l-46.2-26.7c-.3-.2-.7-.2-1.1 0l-46.2 26.7c-.6.4-.6 1.4.2 1.9zM227.4 532.9l45.8 26.5c.5.2 1.2.3 1.6 0l45.9-26.5c.7-.4.7-1.4 0-1.9l-46.2-26.7c-.3-.2-.7-.2-1.1 0l-46 26.7c-.7.4-.7 1.4 0 1.9zM359 639.6l11.7 7c4.2 2.5 4.2 8.5 0 11.1l-45.4 27.7c-4.2 2.6-4.1 8.7.1 11.1l31.8 18.5"/><linearGradient id="SVGID_1_" gradientUnits="userSpaceOnUse" x1="2734.645" y1="-751.404" x2="2734.645" y2="-589.881" gradientTransform="matrix(0 1 -1 0 -329.633 -2145.494)"><stop offset=".5" stop-color="#00BEEF"/><stop offset=".5" stop-color="#006787"/></linearGradient><path class="st3" d="M411.3 629.5v-80.7l-70-40.4-69.9 40.4v80.7l69.9 40.4z"/><linearGradient id="SVGID_2_" gradientUnits="userSpaceOnUse" x1="2789.749" y1="-857.624" x2="2789.749" y2="-786.029" gradientTransform="matrix(0 1 -1 0 -329.633 -2145.494)"><stop offset=".5" stop-color="#00BEEF"/><stop offset=".5" stop-color="#006787"/></linearGradient><path class="st4" d="M523.3 662.2v-35.8l-31-17.9-31 17.9v35.8l31 17.9z"/><linearGradient id="SVGID_3_" gradientUnits="userSpaceOnUse" x1="2661.23" y1="-637.905" x2="2661.23" y2="-566.31" gradientTransform="matrix(0 1 -1 0 -329.633 -2145.494)"><stop offset=".5" stop-color="#00BEEF"/><stop offset=".5" stop-color="#006787"/></linearGradient><path class="st5" d="M303.6 533.6v-35.8l-31-17.9-31 17.9v35.8l31 17.9z"/><path class="st6" d="M243.7 497.9l28.9 16.7 28.9-16.7-28.9-16.7zM271.9 548.9l69.1 39.9 69-39.9-69-39.8z"/><linearGradient id="SVGID_4_" gradientUnits="userSpaceOnUse" x1="410.107" y1="514.643" x2="273" y2="514.643"><stop offset=".5" stop-color="#00BEEF"/><stop offset=".5" stop-color="#006787"/></linearGradient><path class="st7" d="M410.1 521.7v-14.1s0-.1-.1-.1l-68.4-39.5h-.1l-68.4 39.5-.1.1v14.1s0 .1.1.1l68.4 39.5h.1l68.5-39.6z"/><path class="st6" d="M274.4 507.7l67.2 38.8 67.1-38.8-67.1-38.7z"/><linearGradient id="SVGID_5_" gradientUnits="userSpaceOnUse" x1="409.725" y1="491.438" x2="272.618" y2="491.438"><stop offset=".5" stop-color="#00BEEF"/><stop offset=".5" stop-color="#006787"/></linearGradient><path class="st8" d="M409.7 498.5v-14.2l-68.5-39.6-68.6 39.6v14.2l68.6 39.6z"/><path class="st6" d="M274 484.4l67.2 38.8 67.1-38.8-67.1-38.7z"/><linearGradient id="SVGID_6_" gradientUnits="userSpaceOnUse" x1="409.725" y1="467.966" x2="272.618" y2="467.966"><stop offset=".5" stop-color="#00BEEF"/><stop offset=".5" stop-color="#006787"/></linearGradient><path class="st9" d="M409.7 475.1v-14.2l-68.5-39.6-68.6 39.6v14.2l68.6 39.6z"/><path class="st6" d="M274 460.9l67.2 38.8 67.1-38.8-67.1-38.7z"/><path class="st10" d="M305.1 461.9l35.9 20.7 35.9-20.7-35.9-20.7z"/><path class="st6" d="M463.4 626.5l28.9 16.6 28.9-16.6-28.9-16.7z"/><linearGradient id="SVGID_7_" gradientUnits="userSpaceOnUse" x1="2828.495" y1="-791.901" x2="2828.495" y2="-720.306" gradientTransform="matrix(0 1 -1 0 -329.633 -2145.494)"><stop offset=".5" stop-color="#00BEEF"/><stop offset=".5" stop-color="#006787"/></linearGradient><path class="st11" d="M457.6 700.9v-35.8l-31-17.9-31 17.9v35.8l31 17.9z"/><path class="st6" d="M397.7 665.2l28.9 16.7 28.9-16.7-28.9-16.7z"/><linearGradient id="SVGID_8_" gradientUnits="userSpaceOnUse" x1="2867.016" y1="-724.645" x2="2867.016" y2="-653.05" gradientTransform="matrix(0 1 -1 0 -329.633 -2145.494)"><stop offset=".5" stop-color="#00BEEF"/><stop offset=".5" stop-color="#006787"/></linearGradient><path class="st12" d="M390.4 739.4v-35.8l-31-17.9-31 17.9v35.8l31 17.9z"/><path class="st6" d="M330.5 703.7l28.9 16.7 28.9-16.7-28.9-16.7z"/><linearGradient id="SVGID_9_" gradientUnits="userSpaceOnUse" x1="2699.75" y1="-574.649" x2="2699.75" y2="-503.054" gradientTransform="matrix(0 1 -1 0 -329.633 -2145.494)"><stop offset=".5" stop-color="#00BEEF"/><stop offset=".5" stop-color="#006787"/></linearGradient><path class="st13" d="M240.4 572.2v-35.8l-31-17.9-31 17.9v35.8l31 17.9z"/><path class="st6" d="M180.5 536.5l28.9 16.6 28.9-16.6-28.9-16.7z"/><linearGradient id="SVGID_10_" gradientUnits="userSpaceOnUse" x1="2737.787" y1="-507.315" x2="2737.787" y2="-435.72" gradientTransform="matrix(0 1 -1 0 -329.633 -2145.494)"><stop offset=".5" stop-color="#00BEEF"/><stop offset=".5" stop-color="#006787"/></linearGradient><path class="st14" d="M173 610.2v-35.8l-31-17.9-31 17.9v35.8l31 17.9z"/><path class="st6" d="M113.1 574.5l28.9 16.7 28.9-16.7-28.9-16.7z"/><path class="st15" d="M303.3 578l-13.3-7.4v-2.4l13.4 7.4zM307.5 585.3l-13.4-7.4.1-2.5 13.3 7.4zM312.5 593l-13.4-7.5.1-2.4 13.3 7.4zM319.9 602l-14.2-7.9.1-2.4 14.2 7.9zM324.3 609.3l-18.7-10.3.1-2.5 18.7 10.4zM319.7 611.7l-14.2-7.8.1-2.5 14.2 7.9zM312.1 612.9l-13.4-7.4.1-2.4 13.3 7.4zM306.9 614.9l-13.3-7.4v-2.4l13.4 7.4zM302.5 617.4l-13.3-7.4v-2.4l13.4 7.4zM309.1 626l-13.3-7.4v-2.4l13.4 7.4zM315.7 634.6l-13.4-7.4.1-2.5 13.4 7.4zM308.9 635.7l-13.3-7.4v-2.4l13.4 7.4zM302.2 636.9l-13.4-7.4v-2.4l13.4 7.4zM121.9 596.2l-.2 7.8-.9-.5.1-3.5-3.6-2.1-.1 3.5-.9-.5.2-7.8.9.5-.1 3.3 3.6 2.1.1-3.3.9.5zM126.2 606.2c-.1.1-.3.1-.5 0s-.4-.1-.6-.2c-.5-.3-.8-.6-1.1-1.1-.3-.5-.4-1-.4-1.6l.1-3.2-.8-.5v-.9l.8.5v-1.3l.9.5v1.3l1.4.8v.9l-1.4-.8-.1 3.2c0 .3.1.6.2.8.1.2.3.4.5.6.3.2.5.2.7.1l.3.9zM134.7 606.1c.3.6.5 1.4.5 2.2l-.1 3.4-.9-.5.1-3.3c0-.6-.1-1.1-.3-1.5-.2-.4-.5-.7-.9-1-.4-.3-.8-.3-1.1-.1-.3.2-.4.6-.4 1.2l-.1 3-.9-.5.1-3.3c0-.6-.1-1.1-.3-1.5-.2-.4-.5-.7-.9-1-.4-.3-.8-.3-1.1-.1-.3.2-.4.6-.4 1.2l-.1 3-.9-.5.1-5.9.8.5v.9c.2-.2.4-.3.7-.3.3 0 .6.1 1 .3.4.2.7.5 1 .8.3.4.5.7.6 1.2.2-.2.4-.4.8-.4.3 0 .7.1 1.1.3.8.8 1.3 1.3 1.6 1.9zM136.9 604.4l.9.5-.2 8.2-.9-.5.2-8.2zM403.3 693.2c-.8-.9-1.5-1.9-1.9-3-.5-1.1-.7-2.1-.7-3.1s.2-1.8.7-2.3c.5-.5 1.1-.8 2-.7.8 0 1.8.3 2.8.9.8.5 1.5 1 2.2 1.7.7.7 1.2 1.4 1.7 2.2l-1 .4c-.8-1.3-1.7-2.2-2.9-2.9-.8-.4-1.5-.7-2.1-.7-.6 0-1.1.2-1.4.6-.3.4-.5 1-.5 1.7s.2 1.5.5 2.3c.3.8.8 1.6 1.4 2.3.6.7 1.3 1.3 2.1 1.7 1.1.7 2.1.8 2.9.5l1 1.5c-.5.3-1 .3-1.7.2-.7-.1-1.4-.4-2.2-.9-1.1-.7-2-1.5-2.9-2.4zM418.4 695.9l-.4 2.6 2 1.2v1.1l-2.2-1.3-.3 2.5-1-.6.3-2.5-2.8-1.6-.3 2.5-1-.6.3-2.5-2-1.2v-1.1l2.2 1.3.4-2.6-2.1-1.2v-1.1l2.2 1.3.3-2.5 1 .6-.3 2.5 2.8 1.6.3-2.5 1 .6-.3 2.5 2 1.2v1.1l-2.1-1.3zm-1.1-.6l-2.8-1.6-.4 2.6 2.8 1.6.4-2.6zM475.2 649.3c.8 1.1 1.1 2.1 1.1 3.2s-.4 1.8-1.1 2-1.8-.1-3.1-.8l-2.5-1.4v3.1l-1.4-.8v-10.1l4 2.2c1.2.6 2.2 1.5 3 2.6zm-1.1 3.7c.5-.1.7-.5.7-1.3 0-.7-.2-1.4-.7-2.1-.5-.7-1.2-1.3-2.1-1.8l-2.5-1.4v4.6l2.5 1.4c.9.5 1.6.7 2.1.6zM485.1 656.3l-3.7 6.4c-.3.6-.7.9-1.2 1-.4.1-1-.1-1.6-.4-.4-.2-.7-.5-1.1-.8-.4-.3-.6-.7-.9-1l.6-.7c.4.6.9 1 1.4 1.3.3.2.6.3.8.2.2-.1.4-.2.6-.6l.2-.4-3.4-9.6 1.4.8 2.7 7.6 2.7-4.7 1.5.9zM336.5 731.2c-.6-.7-1.1-1.4-1.4-2.1l1-.5c.6 1.3 1.4 2.3 2.4 2.9.6.4 1.1.5 1.5.3.3-.2.5-.7.5-1.4v-6.5l-4.2-2.7v-1.4l5.8 3.7v7.8c0 1.3-.3 2-.9 2.3-.6.3-1.5 0-2.7-.8-.8-.4-1.4-1-2-1.6zM346.3 737.4c-.8-.8-1.4-1.5-1.9-2.3l.6-.9c.4.7 1 1.4 1.7 2 .7.7 1.4 1.3 2.1 1.7 1 .6 1.7.9 2.1.9.5 0 .7-.3.7-.8 0-.4-.1-.8-.4-1.2-.3-.4-.6-.8-1-1.2-.4-.4-.9-.9-1.6-1.5-.9-.8-1.6-1.4-2.1-2-.5-.5-1-1.2-1.4-1.8-.4-.7-.6-1.4-.6-2.1 0-.6.2-1.1.5-1.4.3-.3.8-.4 1.5-.2.7.1 1.5.5 2.5 1.1.7.4 1.4 1 2 1.5.7.6 1.2 1.2 1.7 1.8l-.5 1c-.5-.6-1-1.2-1.6-1.7-.6-.5-1.1-.9-1.6-1.3-.9-.6-1.6-.9-2.1-.8-.5 0-.7.3-.7.9 0 .4.1.8.4 1.2.3.4.6.8 1 1.2.4.4.9.9 1.6 1.5.9.8 1.6 1.4 2.1 2s1 1.2 1.4 1.8c.4.7.6 1.4.6 2.1 0 .6-.2 1.1-.5 1.3-.3.3-.8.4-1.5.2-.7-.1-1.5-.5-2.5-1.1-.9-.4-1.7-1.1-2.5-1.9zM185.7 564.3c-.7-.8-1.2-1.7-1.5-2.8-.4-1-.5-2-.5-3.1 0-1 .3-1.9.7-2.5.4-.6 1-1 1.7-1.1.7-.1 1.5 0 2.3.5.7.3 1.3.8 1.8 1.3.5.6 1 1.2 1.4 1.9l-.8.6c-.6-1.2-1.4-2-2.4-2.5-.6-.3-1.2-.4-1.7-.3-.5.1-.9.4-1.2.9-.3.5-.5 1.1-.5 1.9 0 .8.1 1.5.4 2.3.3.8.7 1.5 1.1 2.1.5.6 1.1 1.1 1.7 1.4.9.5 1.8.5 2.4-.1l.8 1.4c-.4.4-.9.5-1.5.5s-1.2-.2-1.8-.5c-1-.5-1.8-1.1-2.4-1.9zM192.9 568.3c-.5-.4-.9-.8-1.1-1.3l.5-.9c.3.4.6.8 1 1.1.4.4.8.6 1.2.8 1 .5 1.5.4 1.6-.3 0-.2-.1-.5-.2-.7-.1-.2-.3-.4-.5-.6-.2-.2-.5-.4-.9-.7-.5-.4-.9-.7-1.3-1-.3-.3-.6-.7-.8-1.1s-.3-.9-.3-1.5c0-.7.3-1.2.8-1.4.5-.2 1.2-.1 2 .3.4.2.9.5 1.3.8.4.3.8.7 1 1.1l-.5.9c-.5-.7-1.1-1.2-1.8-1.6-.5-.2-.9-.3-1.1-.3-.3.1-.4.3-.4.6s.1.5.2.7c.1.2.3.4.5.6.2.2.5.4.9.7.5.4.9.7 1.2 1 .3.3.6.6.8 1.1.2.4.3.9.3 1.4 0 .7-.3 1.2-.8 1.4-.5.2-1.2.1-2.1-.4-.6 0-1.1-.3-1.5-.7zM198.9 571.3c-.5-.4-.9-.8-1.1-1.3l.5-.9c.3.4.6.8 1 1.1.4.4.8.6 1.2.8 1 .5 1.5.4 1.6-.3 0-.2-.1-.5-.2-.7s-.3-.4-.5-.6c-.2-.2-.5-.4-.9-.7-.5-.4-.9-.7-1.3-1-.3-.3-.6-.7-.8-1.1-.2-.4-.3-.9-.3-1.5 0-.7.3-1.2.8-1.4.5-.2 1.2-.1 2 .3.4.2.9.5 1.3.8.4.3.8.7 1 1.1l-.5.9c-.5-.7-1.1-1.2-1.8-1.6-.5-.2-.9-.3-1.1-.3-.3.1-.4.3-.4.6s.1.5.2.7c.1.2.3.4.5.6.2.2.5.4.9.7.5.4.9.7 1.2 1 .3.3.6.6.8 1.1s.3.9.3 1.4c0 .7-.3 1.2-.8 1.4-.5.2-1.2.1-2.1-.4-.5.1-1-.2-1.5-.7zM247.8 524.2c-.5-.5-.9-1-1.2-1.4l.4-.8c.3.5.6.9 1 1.3s.9.7 1.3 1c.6.3 1.1.4 1.4.3.3-.1.5-.4.5-.8 0-.3-.1-.6-.2-.9l-.6-.8c-.2-.2-.6-.5-1-.9-.5-.4-1-.8-1.3-1.2-.3-.3-.6-.7-.8-1.2-.2-.5-.3-1-.3-1.6 0-.5.1-.9.3-1.1.2-.3.5-.4 1-.4.4 0 .9.1 1.5.4.4.2.8.5 1.3.9.4.4.8.7 1 1.1l-.4.9c-.3-.4-.6-.7-1-1.1-.3-.3-.7-.5-1-.7-.6-.3-1-.4-1.3-.3-.3.1-.5.4-.5.8 0 .3.1.6.2.9l.6.8c.2.2.6.5 1 .9.5.4 1 .8 1.3 1.2.3.3.6.7.8 1.2.2.5.3 1 .3 1.5s-.1.9-.3 1.1c-.2.3-.5.4-1 .4-.4 0-.9-.1-1.6-.5-.3-.2-.9-.5-1.4-1zM257.5 523.1c.4.7.6 1.5.5 2.4l-.1 4.1-.9-.5v-.9c-.2.2-.4.4-.7.4-.3 0-.7-.1-1.1-.3-.6-.3-1.1-.8-1.5-1.3s-.5-1.1-.5-1.7c0-.6.2-1 .6-1.2.4-.2.9-.1 1.7.3l1.6.8v-.2c0-.5-.1-1-.3-1.4-.2-.4-.6-.7-1.1-1-.3-.2-.6-.3-1-.3-.3 0-.6 0-.8.1l-.4-1.1c.3-.1.6-.2 1-.1s.8.2 1.3.4c.7.3 1.3.8 1.7 1.5zm-1.1 4.5c.3-.1.5-.3.6-.6v-1l-1.5-.8c-.8-.4-1.3-.3-1.3.4 0 .3.1.7.3 1 .2.3.5.6.9.8.3.2.7.3 1 .2zM260 530.6c-.4-.4-.7-.7-1-1.1l.4-.8c.2.3.5.7.9 1 .3.3.7.6 1 .7.9.4 1.3.4 1.3-.3 0-.2 0-.4-.2-.6s-.3-.3-.4-.5c-.2-.1-.4-.3-.7-.6-.4-.3-.8-.6-1.1-.9-.3-.3-.5-.6-.7-.9-.2-.4-.3-.8-.3-1.3 0-.6.2-1 .7-1.2.4-.2 1-.1 1.7.3.4.2.7.4 1.1.7.4.3.7.6.9.9l-.5.8c-.4-.6-1-1-1.6-1.4-.4-.2-.7-.3-1-.2-.2.1-.3.2-.3.5 0 .2.1.4.2.6.1.2.3.4.5.5.2.2.4.4.8.6.4.3.8.6 1.1.9.3.2.5.6.7.9.2.4.3.8.3 1.2 0 .6-.2 1-.7 1.1-.4.1-1 0-1.7-.3-.5 0-1-.3-1.4-.6zM265.2 533.2c-.4-.4-.7-.7-1-1.1l.4-.8c.2.3.5.7.9 1 .3.3.7.6 1 .7.9.4 1.3.4 1.3-.3 0-.2 0-.4-.2-.6l-.4-.5c-.2-.1-.4-.3-.7-.6-.4-.3-.8-.6-1.1-.9-.3-.3-.5-.6-.7-.9-.2-.4-.3-.8-.3-1.3 0-.6.2-1 .7-1.2.4-.2 1-.1 1.7.3.4.2.7.4 1.1.7.4.3.7.6.9.9l-.5.8c-.4-.6-1-1-1.6-1.4-.4-.2-.7-.3-1-.2-.2.1-.3.2-.3.5 0 .2.1.4.2.6.1.2.3.4.5.5.2.2.4.4.8.6.4.3.8.6 1.1.9.3.2.5.6.7.9.2.4.3.8.3 1.2 0 .6-.2 1-.7 1.1-.4.1-1 0-1.7-.3-.5.1-1-.2-1.4-.6z"/><path class="st16" d="M385 611.2l-2.9.4c-.2-1.1-.5-2.1-1-3l2.2-2.4c.6-.6.7-1.5.2-2l-2.8-2.7c-.5-.5-1.3-.3-1.9.3l-2.2 2.4c-.9-.4-2-.7-3-.9l.3-2.9c.1-.8-.5-1.3-1.2-1.2l-4.4.7c-.8.1-1.4.8-1.5 1.6l-.3 2.9c-1.1.5-2.2 1.1-3.3 1.8l-1.8-1.8c-.5-.5-1.3-.3-1.9.3l-3.4 3.6c-.6.6-.7 1.5-.2 2l1.8 1.8c-.7 1.1-1.2 2.3-1.6 3.4l-2.9.4c-.8.1-1.4.8-1.5 1.6l-.4 4.5c-.1.8.5 1.3 1.2 1.2l2.9-.4c.2 1.1.5 2.1 1 3l-2.2 2.4c-.6.6-.7 1.5-.2 2l2.8 2.7c.5.5 1.3.3 1.9-.3l2.2-2.4c.9.4 2 .7 3 .9l-.3 2.9c-.1.8.5 1.3 1.2 1.2l4.4-.7c.8-.1 1.4-.8 1.5-1.6l.3-2.9c1.1-.5 2.2-1.1 3.3-1.8l1.8 1.8c.5.5 1.3.3 1.9-.3l3.4-3.6c.6-.6.7-1.5.2-2l-1.8-1.8c.7-1.1 1.2-2.3 1.6-3.4l2.9-.4c.8-.1 1.4-.8 1.5-1.6l.4-4.5c.1-.8-.4-1.3-1.2-1.2zm-11.7 10.4c-3.1 3.3-7.6 4-10.1 1.5s-2.1-7.1 1-10.4c3.1-3.3 7.6-4 10.1-1.5s2.1 7.1-1 10.4zM404.1 599.5c.4-.2.6-.7.5-1.1l-.8-2.2c-.1-.4-.6-.5-1-.3l-1.6.9c-.4-.5-.8-.9-1.3-1.2l.8-1.7c.2-.4 0-.9-.3-1l-2.3-.6c-.4-.1-.9.2-1.1.6l-.8 1.7c-.6 0-1.3.1-2 .3l-.5-1.5c-.1-.4-.6-.5-1-.3l-2.4 1.4c-.4.2-.6.7-.5 1.1l.5 1.5c-.6.5-1.1 1-1.5 1.6l-1.5-.4c-.4-.1-.9.2-1.1.6l-1.2 2.5c-.2.4 0 .9.3 1l1.5.4c-.1.7-.2 1.3-.2 2l-1.6.9c-.4.2-.6.7-.5 1.1l.8 2.2c.1.4.6.5 1 .3l1.6-.9c.4.5.8.9 1.3 1.2l-.8 1.7c-.2.4 0 .9.3 1l2.3.6c.4.1.9-.2 1.1-.6l.8-1.7c.6 0 1.3-.1 2-.3l.5 1.5c.1.4.6.5 1 .3l2.4-1.4c.4-.2.6-.7.5-1.1l-.5-1.5c.6-.5 1.1-1 1.5-1.6l1.5.4c.4.1.9-.2 1.1-.6l1.2-2.5c.2-.4 0-.9-.3-1l-1.5-.4c.1-.7.2-1.3.2-2l1.6-.9zm-8.2 6.7c-2.2 1.2-4.5.6-5.2-1.4-.7-2 .5-4.6 2.7-5.9 2.2-1.2 4.5-.6 5.2 1.4.7 2.1-.5 4.7-2.7 5.9zM372.8 597.3c.1.3.5.4.8.2l1.3-.8c.3.4.7.7 1.1 1l-.6 1.4c-.2.4 0 .7.3.8l1.9.5c.3.1.7-.1.9-.5l.6-1.4c.5 0 1.1-.1 1.7-.3l.4 1.2c.1.3.5.4.8.2l2-1.2c.3-.2.5-.6.4-.9l-.4-1.2c.5-.4.9-.9 1.3-1.4l1.2.3c.3.1.7-.1.9-.5l1-2.1c.2-.4 0-.7-.3-.8l-1.2-.3c.1-.6.2-1.1.1-1.7l1.3-.8c.3-.2.5-.6.4-.9l-.7-1.9c-.1-.3-.5-.4-.8-.2l-1.3.8c-.3-.4-.7-.7-1.1-1l.6-1.4c.2-.4 0-.7-.3-.8l-1.9-.5c-.3-.1-.7.1-.9.5l-.6 1.4c-.5 0-1.1.1-1.7.3l-.4-1.2c-.1-.3-.5-.4-.8-.2l-2 1.2c-.4.2-.5.6-.4.9l.4 1.2c-.5.4-.9.9-1.3 1.4l-1.2-.3c-.3-.1-.7.1-.9.5l-1 2.1c-.2.4 0 .7.3.8l1.2.3c-.1.6-.2 1.1-.1 1.7l-1.3.8c-.3.2-.5.6-.4.9l.7 1.9zm6.6-8.6c1.8-1 3.8-.5 4.4 1.2.6 1.7-.4 3.9-2.3 5-1.8 1-3.8.5-4.4-1.2-.5-1.7.5-3.9 2.3-5z"/><path class="st17" d="M210.1 278.3l113.1 65.4c.3.2.6.2.9 0l156.8-88.5c.6-.4.6-1.3 0-1.6l-113.1-65.4c-.3-.2-.6-.2-.9 0l-156.8 88.5c-.6.3-.6 1.2 0 1.6zM27.1 119.3l113.1 65.4c.3.2.6.2.9 0l156.8-88.5c.6-.4.6-1.3 0-1.6l-113.1-65.4c-.3-.2-.6-.2-.9 0l-156.8 88.5c-.6.3-.6 1.2 0 1.6z"/><path class="st18" d="M157.8 203.3l156.7 90.7c.4.2.9.2 1.3 0l217.3-122.6c.9-.5.9-1.7 0-2.2l-156.7-90.7c-.4-.2-.9-.2-1.3 0l-217.3 122.6c-.8.5-.8 1.7 0 2.2zM451.2 102.8l87.9 50.9c.2.1.5.1.7 0l121.9-68.8c.5-.3.5-1 0-1.3l-87.9-50.9c-.2-.1-.5-.1-.7 0l-121.9 68.8c-.5.4-.5 1.1 0 1.3z"/><path class="st19" d="M249.8 330.2l76.5 44.2c.2.1.4.1.6 0l106-59.8c.4-.2.4-.9 0-1.1l-76.5-44.2c-.2-.1-.4-.1-.6 0l-106 59.8c-.4.2-.4.8 0 1.1z"/><path class="st0" d="M548.2 187l66.1 36.5c.1.1.3.1.4 0l69.8-39.3c.2-.1.2-.5 0-.6l-66.2-36.6c-.1-.1-.3-.1-.4 0l-69.8 39.3c-.2.2-.2.5.1.7zM.2 245l66.1 36.5c.1.1.3.1.4 0l69.8-39.3c.2-.1.2-.5 0-.6l-66.2-36.6c-.1-.1-.3-.1-.4 0l-69.7 39.3c-.3.2-.3.5 0 .7z"/><path class="st20" d="M309.2 242.8l-174.9-99.9 247.5-142.9 174.9 99.9z"/><path class="st15" d="M401.3 56.1l-40.8-23.6-29.7 17.1 40.8 23.6 29.7-17.1zM445.3 81.5l-40.8-23.6-29.7 17.1 40.8 23.6 29.7-17.1zM489.4 106.9l-40.8-23.6-29.7 17.1 40.8 23.6 29.7-17.1zM434.5 138.1l-128.5-74.1 4.1-2.4 128.5 74.2zM423 144.8l-128.5-74.2 4.1-2.3 128.5 74.2zM350.4 116.3l-67.5-38.9 4-2.4 67.5 39zM206.1 139.6c-.7-.6-1-1.3-1-2 0-.4.6-.8 1.3-.8.9 0 1.9-.1 2.8-.3.5.2 1.4.2 1.8 0 .5-.3.6-.6.4-.9 1.9-1.2 2.8-2.7.1-4.2-2.7-1.6-5.2-1.1-7.3 0-.4-.1-1.1 0-1.5.2-.5.3-.4.8-.1 1.1-.4.5-.5 1.1-.5 1.6 0 .4-.6.8-1.3.8-1.2 0-2.4-.2-3.5-.6-1.4-.5-3.3-.4-4.5.3l-2.1 1.2c-.4.2-.4.6 0 .9l11.3 6.5c.4.2 1.1.2 1.5 0l2.1-1.2c1.2-.7 1.4-1.8.5-2.6zM316.5 200.8l.8-.5 2.8.4c.5-.5.8-1 1.1-1.5l-2.4-.9c.1-.5.1-.9 0-1.4l2.4-.9c-.2-.5-.6-1-1.1-1.5l-2.8.4c-.2-.2-.5-.4-.8-.5l-.9-.5.7-1.6c-.8-.3-1.7-.5-2.6-.6l-1.5 1.4c-.8-.1-1.6-.1-2.4 0l-1.5-1.4c-.9.1-1.8.3-2.6.6l.7 1.6c-.3.1-.6.3-.9.5l-.8.5-2.8-.4c-.5.5-.8 1-1.1 1.5l2.4.9c-.1.5-.1.9 0 1.4l-2.4.9c.2.5.6 1 1.1 1.5l2.8-.4c.2.2.5.4.8.5l.9.5-.7 1.6c.8.3 1.7.5 2.6.6l1.5-1.4c.8.1 1.6.1 2.4 0l1.5 1.4c.9-.1 1.8-.3 2.6-.6l-.7-1.6c.3-.2.6-.4.9-.5zm-7.9-2c-1.2-.7-1.3-1.9 0-2.6 1.2-.7 3.3-.7 4.5 0 1.2.7 1.3 1.9 0 2.6-1.2.7-3.2.7-4.5 0zM223.9 156.3l3.5 2 6.3-3.6-3.5-2-6.3 3.6zm5.2 3l3.5 2 10.2-5.9-3.5-2-10.2 5.9zm19.4-5.1l-14.2 8.2 3.5 2 14.2-8.2-3.5-2zM284.6 175.1c-1.5-.9-3.6-1.1-5.5-.8.6-1.1.1-2.3-1.4-3.2-2.1-1.2-5.6-1.2-7.7 0-3.9 2.2-1.4 9.2-1.4 9.2s12.1 1.4 15.9-.8c2.3-1.1 2.3-3.1.1-4.4zM318.3 164.2l-61-35.2c-7.9-4.6-7.9-11.9-.1-16.5 7.8-4.5 20.6-4.5 28.5.1l60.9 35.2c7.9 4.6 7.9 11.9.1 16.5-7.7 4.5-20.5 4.4-28.4-.1z"/><linearGradient id="SVGID_11_" gradientUnits="userSpaceOnUse" x1="340.604" y1="271.267" x2="342.079" y2="564.611"><stop offset=".237" stop-color="#fff" stop-opacity="0"/><stop offset=".263" stop-color="#fff" stop-opacity="0"/><stop offset="1" stop-color="#fff"/></linearGradient><path class="st21" d="M406.6 461.7v-155.2h-130.8v155.2l65.4 37.7z"/></svg>