<svg xmlns="http://www.w3.org/2000/svg" viewBox="0 0 428.4 725" enable-background="new 0 0 428.4 725"><style type="text/css">.st0{fill:url(#SVGID_1_);} .st1{fill:url(#SVGID_2_);} .st2{fill:#DFE5EA;} .st3{opacity:0.61;} .st4{fill:#FFFFFF;} .st5{fill:url(#SVGID_3_);} .st6{fill:#ECEFF1;} .st7{fill:url(#SVGID_4_);} .st8{fill:url(#SVGID_5_);} .st9{fill:url(#SVGID_6_);} .st10{fill:url(#SVGID_7_);} .st11{fill:url(#SVGID_8_);} .st12{fill:url(#SVGID_9_);} .st13{fill:url(#SVGID_10_);} .st14{fill:url(#SVGID_11_);} .st15{fill:url(#SVGID_12_);} .st16{fill:url(#SVGID_13_);} .st17{fill:url(#SVGID_14_);} .st18{fill:url(#SVGID_15_);} .st19{fill:url(#SVGID_16_);} .st20{fill:url(#SVGID_17_);} .st21{fill:url(#SVGID_18_);} .st22{fill:url(#SVGID_19_);} .st23{fill:url(#SVGID_20_);} .st24{fill:url(#SVGID_21_);}</style><linearGradient id="SVGID_1_" gradientUnits="userSpaceOnUse" x1="-6341.352" y1="-6323.574" x2="-6339.713" y2="-5997.501" gradientTransform="matrix(-1 0 0 -1 -6136.594 -5559.542)"><stop offset=".274" stop-color="#fff" stop-opacity="0"/><stop offset="1" stop-color="#fff"/></linearGradient><path class="st0" d="M157.8 537.2v187.8h92.6v-187.8l-46.3-26.8z"/><linearGradient id="SVGID_2_" gradientUnits="userSpaceOnUse" x1="2495.023" y1="-797.369" x2="2495.023" y2="-618.244" gradientTransform="matrix(0 1 -1 0 -504.071 -2009.904)"><stop offset=".5" stop-color="#00BEEF"/><stop offset=".5" stop-color="#006787"/></linearGradient><path class="st1" d="M281.7 520.7v-71.2l-77.6-44.8-77.6 44.8v71.2l77.6 44.8z"/><path class="st2" d="M127.1 449.7l76.6 44.2 76.6-44.2-76.6-44.2z"/><g class="st3"><path class="st4" d="M248.7 521.5l-12.3 7.3-18.1-20.7 12.2-7.3zM242.6 514.6l12.1-7.3 12.2-28.3-12.1 7.2zM254.7 507.3l-6 14.2 12.1-7.3z"/></g><linearGradient id="SVGID_3_" gradientUnits="userSpaceOnUse" x1="2414.652" y1="-797.369" x2="2414.652" y2="-618.244" gradientTransform="matrix(0 1 -1 0 -504.071 -2009.904)"><stop offset=".5" stop-color="#00BEEF"/><stop offset=".5" stop-color="#006787"/></linearGradient><path class="st5" d="M281.7 440.3v-71.1l-77.6-44.8-77.6 44.8v71.1l77.6 44.8z"/><path class="st2" d="M127.1 369.3l76.6 44.3 76.6-44.3-76.6-44.2z"/><path class="st6" d="M152.8 410.7v3.3l-1-.6v-3.3l-3.9-8.6 1.1.6 3.3 7.4 3.3-3.5 1 .6-3.8 4.1zM159 417.2c-.6-.6-1-1.3-1.3-2.1-.3-.8-.5-1.5-.5-2.2 0-.7.2-1.3.5-1.6.3-.4.8-.6 1.3-.5.6 0 1.2.2 1.9.6.7.4 1.3.9 1.9 1.6.6.6 1 1.3 1.3 2.1.3.7.5 1.5.5 2.2 0 .7-.2 1.3-.5 1.6-.3.4-.8.6-1.3.5-.6 0-1.2-.2-1.9-.6-.7-.4-1.3-.9-1.9-1.6zm3.3 1.2c.4 0 .7-.1 1-.4.2-.3.3-.7.3-1.3 0-.6-.1-1.1-.3-1.7-.2-.6-.6-1.1-1-1.6s-.9-.9-1.4-1.2c-.5-.3-1-.5-1.4-.5-.4 0-.7.1-1 .4-.2.3-.4.7-.4 1.3 0 .6.1 1.1.4 1.7.2.6.6 1.1 1 1.6s.9.9 1.4 1.2c.5.4 1 .5 1.4.5zM173.9 419.1v7.3l-.9-.6v-1.3c-.3.3-.6.4-1.1.4-.5 0-1-.2-1.5-.5-.9-.6-1.7-1.3-2.2-2.1-.5-.9-.8-1.8-.8-2.8v-4.2l1 .6v4.1c0 .8.2 1.5.6 2.1.4.6.9 1.1 1.6 1.5.8.4 1.4.6 1.8.4.4-.2.7-.7.7-1.6v-3.8l.8.5zM179.3 422.6c.5 0 1 .2 1.7.6v1l-.2-.2c-.8-.4-1.4-.6-1.8-.4-.4.2-.6.7-.6 1.6v3.7l-1-.6v-7.3l.9.6v1.4c.2-.3.5-.4 1-.4zM143.2 416.1c.7 1 1.1 2 1.1 3.1 0 1-.4 1.6-1.1 1.8-.7.2-1.7-.1-2.9-.8l-2.6-1.5v3.1l-1-.6v-9.7l3.6 2.1c1.2.7 2.2 1.5 2.9 2.5zm-.8 3.8c.5-.1.8-.6.8-1.3 0-.8-.3-1.5-.8-2.3-.5-.7-1.2-1.4-2.2-1.9l-2.6-1.5v4.8l2.6 1.5c1 .6 1.7.8 2.2.7zM151.6 423.2c.5.8.8 1.6.8 2.6v4.5l-.9-.6v-1.1c-.2.2-.5.4-1 .3-.4 0-.9-.2-1.5-.6-.8-.5-1.5-1-1.9-1.7-.5-.7-.7-1.3-.7-2 0-.6.2-1 .7-1.1.4-.1 1.2.1 2.1.7l2.3 1.4v-.4c0-.6-.2-1.2-.5-1.7-.4-.5-.9-1-1.5-1.4-.5-.3-.9-.5-1.3-.6-.4-.1-.8-.1-1.1 0l-.4-1c.4-.1.8-.1 1.3.1.5.1 1.1.4 1.6.7.7.5 1.5 1.2 2 1.9zm-1.1 4.9c.4 0 .7-.2.9-.6v-1.2l-2.3-1.3c-1.2-.7-1.9-.7-1.9.2 0 .4.2.9.5 1.3s.8.8 1.4 1.2c.5.3 1 .4 1.4.4zM161.7 428.5l-3.6 6c-.3.5-.6.8-1 .9-.4.1-.9-.1-1.4-.4-.4-.2-.7-.5-1-.7-.3-.3-.6-.6-.8-1l.5-.5c.4.6.8 1 1.3 1.3.3.2.6.3.9.2.2 0 .5-.2.7-.6l.3-.5-3.2-9.2 1 .6 2.7 7.8 2.7-4.6.9.7zM163.7 426.7l1 .6v10.3l-1-.6v-10.3zM169.2 439.8c-.6-.6-1-1.3-1.3-2.1-.3-.8-.5-1.5-.5-2.2 0-.7.2-1.3.5-1.6.3-.4.8-.6 1.3-.5.6 0 1.2.2 1.9.6.7.4 1.3.9 1.9 1.6.6.6 1 1.3 1.3 2.1.3.7.5 1.5.5 2.2 0 .7-.2 1.3-.5 1.6-.3.4-.8.6-1.3.5-.6 0-1.2-.2-1.9-.6-.7-.4-1.3-.9-1.9-1.6zm3.3 1.2c.4 0 .7-.1 1-.4.2-.3.3-.7.3-1.3 0-.6-.1-1.1-.3-1.7-.2-.6-.6-1.1-1-1.6s-.9-.9-1.4-1.2c-.5-.3-1-.5-1.4-.5-.4 0-.7.1-1 .4-.2.3-.4.7-.4 1.3 0 .6.1 1.1.4 1.7.2.6.6 1.1 1 1.6s.9.9 1.4 1.2c.5.3 1 .5 1.4.5zM182.2 441.2c.5.8.8 1.6.8 2.6v4.5l-.9-.6v-1.1c-.2.2-.5.4-1 .3-.4 0-.9-.2-1.5-.6-.8-.5-1.5-1-1.9-1.7-.5-.7-.7-1.3-.7-2 0-.6.2-1 .7-1.1.4-.1 1.2.1 2.1.7l2.3 1.4v-.4c0-.6-.2-1.2-.5-1.7-.4-.5-.9-1-1.5-1.4-.5-.3-.9-.5-1.3-.6-.4-.1-.8-.1-1.1 0l-.4-1c.4-.1.8-.1 1.3.1.5.1 1.1.4 1.6.7.8.5 1.5 1.2 2 1.9zm-1.1 4.9c.4 0 .7-.2.9-.6v-1.2l-2.3-1.3c-1.2-.7-1.9-.7-1.9.2 0 .4.2.9.5 1.3s.8.8 1.4 1.2c.5.3 1 .4 1.4.4zM193 443.9v10.3l-.9-.6v-1.4c-.3.3-.7.5-1.2.4-.5 0-1-.2-1.6-.6-.7-.4-1.3-.9-1.9-1.6-.6-.6-1-1.3-1.3-2.1-.3-.7-.5-1.5-.5-2.2 0-.7.2-1.3.5-1.6.3-.4.7-.6 1.3-.5.6 0 1.2.2 1.9.6.6.3 1.1.8 1.6 1.3s.9 1.1 1.2 1.8v-4.4l.9.6zm-2.3 7.8c.4 0 .7-.1 1-.4.2-.3.4-.7.4-1.3 0-.6-.1-1.1-.4-1.7-.2-.6-.6-1.1-1-1.6s-.9-.9-1.4-1.2c-.5-.3-1-.5-1.4-.5-.4 0-.7.1-1 .4-.2.3-.4.7-.4 1.3 0 .6.1 1.1.4 1.7.2.6.6 1.1 1 1.6s.9.9 1.4 1.2c.5.3 1 .5 1.4.5z"/><linearGradient id="SVGID_4_" gradientUnits="userSpaceOnUse" x1="-6515.316" y1="-6146.962" x2="-6514.695" y2="-6023.449" gradientTransform="matrix(-1 0 0 -1 -6136.594 -5559.542)"><stop offset=".274" stop-color="#fff" stop-opacity="0"/><stop offset="1" stop-color="#fff"/></linearGradient><path class="st7" d="M360.9 501.5v71.1h35.1v-71.1l-17.5-10.1z"/><linearGradient id="SVGID_5_" gradientUnits="userSpaceOnUse" x1="2491.675" y1="-916.331" x2="2491.675" y2="-848.48" gradientTransform="matrix(0 1 -1 0 -504.071 -2009.904)"><stop offset=".5" stop-color="#00BEEF"/><stop offset=".5" stop-color="#006787"/></linearGradient><path class="st8" d="M407.8 495.3v-27l-29.3-17-29.4 17v27l29.4 16.9z"/><path class="st2" d="M349.3 468.4l29 16.7 29-16.7-29-16.8z"/><g class="st3"><path class="st4" d="M395.4 495.5l-4.7 2.8-6.9-7.8 4.7-2.8zM393.1 492.9l4.6-2.7 4.6-10.8-4.6 2.8zM397.7 490.2l-2.3 5.3 4.6-2.7z"/></g><linearGradient id="SVGID_6_" gradientUnits="userSpaceOnUse" x1="2461.231" y1="-916.331" x2="2461.231" y2="-848.48" gradientTransform="matrix(0 1 -1 0 -504.071 -2009.904)"><stop offset=".5" stop-color="#00BEEF"/><stop offset=".5" stop-color="#006787"/></linearGradient><path class="st9" d="M407.8 464.8v-27l-29.3-16.9-29.4 16.9v27l29.4 17z"/><path class="st2" d="M349.3 437.9l29 16.8 29-16.8-29-16.7z"/><path class="st6" d="M359.1 453.6v1.3l-.4-.2v-1.3l-1.5-3.3.4.2 1.3 2.8 1.3-1.3.4.2-1.5 1.6zM361.4 456.1c-.2-.2-.4-.5-.5-.8-.1-.3-.2-.6-.2-.8 0-.3.1-.5.2-.6.1-.1.3-.2.5-.2s.5.1.7.2c.3.2.5.4.7.6.2.2.4.5.5.8.1.3.2.6.2.8 0 .3-.1.5-.2.6-.1.1-.3.2-.5.2s-.5-.1-.7-.2l-.7-.6zm1.2.4c.2 0 .3-.1.4-.2.1-.1.1-.3.1-.5s0-.4-.1-.6c-.1-.2-.2-.4-.4-.6-.2-.2-.3-.3-.5-.4-.2-.1-.4-.2-.5-.2-.2 0-.3.1-.4.2-.1.1-.1.3-.1.5s0 .4.1.6c.1.2.2.4.4.6.2.2.3.3.5.4.2.1.4.2.5.2zM367 456.8v2.8l-.4-.2v-.5c-.1.1-.2.2-.4.2s-.4-.1-.6-.2c-.4-.2-.6-.5-.9-.8-.2-.3-.3-.7-.3-1.1v-1.6l.4.2v1.6c0 .3.1.6.2.8.1.2.3.4.6.6.3.2.5.2.7.1.2-.1.3-.3.3-.6v-1.4l.4.1zM369.1 458.1c.2 0 .4.1.6.2v.4l-.1-.1c-.3-.2-.5-.2-.7-.1-.2.1-.2.3-.2.6v1.4l-.4-.2v-2.8l.4.2v.5c.1-.1.2-.1.4-.1zM355.4 455.6c.3.4.4.8.4 1.2 0 .4-.1.6-.4.7-.3.1-.6 0-1.1-.3l-1-.6v1.2l-.4-.2v-3.7l1.4.8c.5.2.8.6 1.1.9zm-.3 1.5c.2 0 .3-.2.3-.5s-.1-.6-.3-.9c-.2-.3-.5-.5-.8-.7l-1-.6v1.8l1 .6c.3.2.6.3.8.3zM358.6 458.3c.2.3.3.6.3 1v1.7l-.4-.2v-.4c-.1.1-.2.1-.4.1s-.4-.1-.6-.2c-.3-.2-.6-.4-.7-.7-.2-.3-.3-.5-.3-.7 0-.2.1-.4.3-.4.2 0 .4 0 .8.3l.9.5v-.2c0-.2-.1-.5-.2-.7-.1-.2-.3-.4-.6-.5-.2-.1-.3-.2-.5-.2h-.4l-.2-.4h.5c.2.1.4.1.6.3.4.2.7.4.9.7zm-.4 1.9c.2 0 .3-.1.3-.2v-.5l-.9-.5c-.5-.3-.7-.3-.7.1 0 .2.1.3.2.5s.3.3.5.4c.2.1.4.2.6.2zM362.4 460.3l-1.4 2.3c-.1.2-.2.3-.4.3-.1 0-.3 0-.5-.1l-.4-.3c-.1-.1-.2-.2-.3-.4l.2-.2c.1.2.3.4.5.5.1.1.2.1.3.1.1 0 .2-.1.2-.2l.1-.2-1.2-3.5.4.2 1 3 1-1.7.5.2zM363.2 459.7l.4.2v3.9l-.4-.2v-3.9zM365.3 464.6c-.2-.2-.4-.5-.5-.8-.1-.3-.2-.6-.2-.8 0-.3.1-.5.2-.6.1-.1.3-.2.5-.2s.5.1.7.2c.3.2.5.4.7.6.2.2.4.5.5.8.1.3.2.6.2.8 0 .3-.1.5-.2.6-.1.1-.3.2-.5.2s-.5-.1-.7-.2c-.3-.1-.5-.3-.7-.6zm1.2.5c.2 0 .3-.1.4-.2.1-.1.1-.3.1-.5s0-.4-.1-.6c-.1-.2-.2-.4-.4-.6-.2-.2-.3-.3-.5-.4-.2-.1-.4-.2-.5-.2-.2 0-.3.1-.4.2-.1.1-.1.3-.1.5s0 .4.1.6c.1.2.2.4.4.6.2.2.3.3.5.4.2.1.4.2.5.2zM370.2 465.1c.2.3.3.6.3 1v1.7l-.4-.2v-.4c-.1.1-.2.1-.4.1s-.4-.1-.6-.2c-.3-.2-.6-.4-.7-.7-.2-.3-.3-.5-.3-.7 0-.2.1-.4.3-.4.2 0 .4 0 .8.3l.9.5v-.2c0-.2-.1-.5-.2-.7-.1-.2-.3-.4-.6-.5-.2-.1-.3-.2-.5-.2h-.4l-.2-.4h.5c.2.1.4.1.6.3.4.2.7.5.9.7zm-.4 1.9c.2 0 .3-.1.3-.2v-.5l-.9-.5c-.5-.3-.7-.3-.7.1 0 .2.1.3.2.5s.3.3.5.4c.2.1.4.2.6.2zM374.3 466.2v3.9l-.4-.2v-.5c-.1.1-.3.2-.4.2-.2 0-.4-.1-.6-.2-.3-.2-.5-.3-.7-.6-.2-.2-.4-.5-.5-.8-.1-.3-.2-.6-.2-.8 0-.3.1-.5.2-.6.1-.1.3-.2.5-.2s.4.1.7.2c.2.1.4.3.6.5.2.2.3.4.4.7v-1.7l.4.1zm-.9 2.9c.2 0 .3-.1.4-.2.1-.1.1-.3.1-.5s0-.4-.1-.6c-.1-.2-.2-.4-.4-.6-.2-.2-.3-.3-.5-.4-.2-.1-.4-.2-.5-.2-.2 0-.3.1-.4.2-.1.1-.1.3-.1.5s0 .4.1.6c.1.2.2.4.4.6.2.2.3.3.5.4.2.1.3.2.5.2z"/><linearGradient id="SVGID_7_" gradientUnits="userSpaceOnUse" x1="-6196.734" y1="-6128.828" x2="-6196.246" y2="-6031.578" gradientTransform="matrix(-1 0 0 -1 -6136.594 -5559.542)"><stop offset=".274" stop-color="#fff" stop-opacity="0"/><stop offset="1" stop-color="#fff"/></linearGradient><path class="st10" d="M46.1 501.6v56.1h27.7v-56.1l-13.9-8z"/><linearGradient id="SVGID_8_" gradientUnits="userSpaceOnUse" x1="2496.006" y1="-590.618" x2="2496.006" y2="-537.195" gradientTransform="matrix(0 1 -1 0 -504.071 -2009.904)"><stop offset=".5" stop-color="#00BEEF"/><stop offset=".5" stop-color="#006787"/></linearGradient><path class="st11" d="M83.1 496.7v-21.2l-23.2-13.4-23.1 13.4v21.2l23.1 13.4z"/><path class="st2" d="M37 475.5l22.8 13.2 22.9-13.2-22.9-13.1z"/><g class="st3"><path class="st4" d="M73.2 496.9l-3.6 2.2-5.4-6.1 3.6-2.2zM71.4 494.9l3.6-2.2 3.7-8.4-3.6 2.1zM75 492.7l-1.8 4.2 3.7-2.1z"/></g><linearGradient id="SVGID_9_" gradientUnits="userSpaceOnUse" x1="2472.035" y1="-590.618" x2="2472.035" y2="-537.195" gradientTransform="matrix(0 1 -1 0 -504.071 -2009.904)"><stop offset=".5" stop-color="#00BEEF"/><stop offset=".5" stop-color="#006787"/></linearGradient><path class="st12" d="M83.1 472.7v-21.2l-23.2-13.3-23.1 13.3v21.2l23.1 13.4z"/><path class="st2" d="M37 451.6l22.8 13.2 22.9-13.2-22.9-13.2z"/><path class="st6" d="M44.7 463.9v1l-.3-.2v-1l-1.2-2.6.3.2 1 2.2 1-1 .3.2-1.1 1.2zM46.5 465.9c-.2-.2-.3-.4-.4-.6-.1-.2-.1-.4-.1-.7 0-.2 0-.4.1-.5.1-.1.2-.2.4-.2s.4.1.6.2c.2.1.4.3.6.5.2.2.3.4.4.6.1.2.1.4.1.7s0 .4-.1.5c-.1.1-.2.2-.4.2s-.4-.1-.6-.2c-.2-.2-.4-.4-.6-.5zm1 .3c.1 0 .2 0 .3-.1.1-.1.1-.2.1-.4s0-.3-.1-.5l-.3-.5c-.1-.1-.3-.3-.4-.3-.2-.1-.3-.1-.4-.1-.1 0-.2 0-.3.1-.1.1-.1.2-.1.4s0 .3.1.5l.3.5c.1.1.3.3.4.3.1.1.3.1.4.1zM50.9 466.4v2.2l-.3-.2v-.4c-.1.1-.2.1-.3.1-.1 0-.3-.1-.5-.2-.3-.2-.5-.4-.7-.6-.2-.3-.2-.5-.2-.8v-1.3l.3.2v1.2c0 .2.1.4.2.6.1.2.3.3.5.5.2.1.4.2.5.1.1-.1.2-.2.2-.5v-1.1l.3.2zM52.5 467.4c.1 0 .3.1.5.2v.3h-.1c-.2-.1-.4-.2-.5-.1-.1.1-.2.2-.2.5v1.1l-.3-.2v-2.2l.3.2v.4c.1-.1.2-.2.3-.2zM41.8 465.5c.2.3.3.6.3.9 0 .3-.1.5-.3.5-.2.1-.5 0-.9-.2l-.8-.5v.9l-.3-.2v-2.9l1.1.6c.4.4.7.6.9.9zm-.2 1.2c.2 0 .2-.2.2-.4s-.1-.5-.2-.7c-.2-.2-.4-.4-.7-.6l-.8-.5v1.4l.8.5c.3.2.5.3.7.3zM44.3 467.6c.2.2.2.5.2.8v1.3l-.3-.2v-.3c-.1.1-.2.1-.3.1-.1 0-.3-.1-.5-.2s-.4-.3-.6-.5c-.1-.2-.2-.4-.2-.6 0-.2.1-.3.2-.3s.3 0 .6.2l.7.4v-.1c0-.2-.1-.4-.2-.5-.1-.2-.3-.3-.5-.4l-.4-.2h-.3l-.1-.3h.4c.2 0 .3.1.5.2.4.2.6.4.8.6zm-.4 1.5c.1 0 .2-.1.3-.2v-.4l-.7-.4c-.4-.2-.6-.2-.6.1 0 .1 0 .3.1.4.1.1.2.2.4.3.3.2.4.2.5.2zM47.3 469.2l-1.1 1.8c-.1.2-.2.2-.3.3-.1 0-.3 0-.4-.1l-.3-.2c-.1-.1-.2-.2-.2-.3l.1-.1c.1.2.2.3.4.4.1.1.2.1.3.1.1 0 .1-.1.2-.2l.1-.2-1-2.7.3.2.8 2.3.8-1.5.3.2zM47.9 468.7l.3.2v3.1l-.3-.2v-3.1zM49.5 472.6c-.2-.2-.3-.4-.4-.6-.1-.2-.1-.4-.1-.7 0-.2 0-.4.1-.5.1-.1.2-.2.4-.2s.4.1.6.2c.2.1.4.3.6.5.2.2.3.4.4.6.1.2.1.4.1.7 0 .2 0 .4-.1.5-.1.1-.2.2-.4.2s-.4-.1-.6-.2l-.6-.5zm1 .3c.1 0 .2 0 .3-.1.1-.1.1-.2.1-.4s0-.3-.1-.5l-.3-.5c-.1-.1-.3-.3-.4-.3-.2-.1-.3-.1-.4-.1-.1 0-.2 0-.3.1-.1.1-.1.2-.1.4s0 .3.1.5l.3.5c.1.1.3.3.4.3.2.1.3.1.4.1zM53.4 473c.2.2.2.5.2.8v1.3l-.3-.2v-.3c-.1.1-.2.1-.3.1-.1 0-.3-.1-.5-.2s-.4-.3-.6-.5c-.1-.2-.2-.4-.2-.6 0-.2.1-.3.2-.3s.3 0 .6.2l.7.4v-.1c0-.2-.1-.4-.2-.5-.1-.2-.3-.3-.5-.4l-.4-.2h-.3l-.1-.3h.4c.2 0 .3.1.5.2.4.2.7.4.8.6zm-.3 1.5c.1 0 .2-.1.3-.2v-.4l-.7-.4c-.4-.2-.6-.2-.6.1 0 .1 0 .3.1.4.1.1.2.2.4.3.2.1.4.2.5.2zM56.6 473.8v3.1l-.3-.2v-.4c-.1.1-.2.1-.3.1-.1 0-.3-.1-.5-.2s-.4-.3-.6-.5c-.2-.2-.3-.4-.4-.6-.1-.2-.1-.4-.1-.7 0-.2 0-.4.1-.5.1-.1.2-.2.4-.2s.3.1.6.2c.2.1.3.2.5.4.1.2.3.3.3.5v-1.3l.3.3zm-.7 2.3c.1 0 .2 0 .3-.1.1-.1.1-.2.1-.4s0-.3-.1-.5l-.3-.5c-.1-.1-.3-.3-.4-.3-.2-.1-.3-.1-.4-.1-.1 0-.2 0-.3.1-.1.1-.1.2-.1.4s0 .3.1.5l.3.5c.1.1.3.3.4.3.2.1.3.1.4.1z"/><linearGradient id="SVGID_10_" gradientUnits="userSpaceOnUse" x1="35.888" y1="577.455" x2="35.888" y2="505.679" gradientTransform="matrix(1 0 0 -1 0 727.604)"><stop offset="0" stop-color="#F2F2F2"/><stop offset=".31" stop-color="#E6E6E6"/><stop offset=".77" stop-color="#ccc"/></linearGradient><circle class="st13" cx="35.9" cy="186" r="35.9"/><linearGradient id="SVGID_11_" gradientUnits="userSpaceOnUse" x1="71.776" y1="727.604" x2="71.776" y2="681.308" gradientTransform="matrix(1 0 0 -1 0 727.604)"><stop offset="0" stop-color="#F2F2F2"/><stop offset=".31" stop-color="#E6E6E6"/><stop offset=".77" stop-color="#ccc"/></linearGradient><circle class="st14" cx="71.8" cy="23.1" r="23.1"/><linearGradient id="SVGID_12_" gradientUnits="userSpaceOnUse" x1="378.469" y1="711.94" x2="378.469" y2="665.643" gradientTransform="matrix(1 0 0 -1 0 727.604)"><stop offset="0" stop-color="#F2F2F2"/><stop offset=".31" stop-color="#E6E6E6"/><stop offset=".77" stop-color="#ccc"/></linearGradient><circle class="st15" cx="378.5" cy="38.8" r="23.1"/><linearGradient id="SVGID_13_" gradientUnits="userSpaceOnUse" x1="96.768" y1="663.567" x2="96.768" y2="524.365" gradientTransform="matrix(1 0 0 -1 0 727.604)"><stop offset="0" stop-color="#F2F2F2"/><stop offset=".31" stop-color="#E6E6E6"/><stop offset=".77" stop-color="#ccc"/></linearGradient><circle class="st16" cx="96.8" cy="133.6" r="69.6"/><linearGradient id="SVGID_14_" gradientUnits="userSpaceOnUse" x1="317.956" y1="627.769" x2="317.956" y2="488.566" gradientTransform="matrix(1 0 0 -1 0 727.604)"><stop offset="0" stop-color="#F2F2F2"/><stop offset=".31" stop-color="#E6E6E6"/><stop offset=".77" stop-color="#ccc"/></linearGradient><circle class="st17" cx="318" cy="169.4" r="69.6"/><linearGradient id="SVGID_15_" gradientUnits="userSpaceOnUse" x1="197.998" y1="704.456" x2="197.998" y2="491.74" gradientTransform="matrix(1 0 0 -1 0 727.604)"><stop offset="0" stop-color="#F2F2F2"/><stop offset=".31" stop-color="#E6E6E6"/><stop offset=".77" stop-color="#ccc"/></linearGradient><circle class="st18" cx="198" cy="129.5" r="106.4"/><linearGradient id="SVGID_16_" gradientUnits="userSpaceOnUse" x1="105.489" y1="586.36" x2="105.489" y2="474.854" gradientTransform="matrix(1 0 0 -1 0 727.604)"><stop offset="0" stop-color="#F2F2F2"/><stop offset=".31" stop-color="#E6E6E6"/><stop offset=".77" stop-color="#ccc"/></linearGradient><circle class="st19" cx="105.5" cy="197" r="55.8"/><linearGradient id="SVGID_17_" gradientUnits="userSpaceOnUse" x1="279.505" y1="600.249" x2="279.505" y2="474.097" gradientTransform="matrix(1 0 0 -1 0 727.604)"><stop offset="0" stop-color="#F2F2F2"/><stop offset=".31" stop-color="#E6E6E6"/><stop offset=".77" stop-color="#ccc"/></linearGradient><circle class="st20" cx="279.5" cy="190.4" r="63.1"/><linearGradient id="SVGID_18_" gradientUnits="userSpaceOnUse" x1="247.676" y1="523.099" x2="247.676" y2="451.323" gradientTransform="matrix(1 0 0 -1 0 727.604)"><stop offset="0" stop-color="#F2F2F2"/><stop offset=".31" stop-color="#E6E6E6"/><stop offset=".77" stop-color="#ccc"/></linearGradient><circle class="st21" cx="247.7" cy="240.4" r="35.9"/><linearGradient id="SVGID_19_" gradientUnits="userSpaceOnUse" x1="141.377" y1="505.345" x2="141.377" y2="433.569" gradientTransform="matrix(1 0 0 -1 0 727.604)"><stop offset="0" stop-color="#F2F2F2"/><stop offset=".31" stop-color="#E6E6E6"/><stop offset=".77" stop-color="#ccc"/></linearGradient><circle class="st22" cx="141.4" cy="258.1" r="35.9"/><linearGradient id="SVGID_20_" gradientUnits="userSpaceOnUse" x1="342.581" y1="724.34" x2="342.581" y2="652.564" gradientTransform="matrix(1 0 0 -1 0 727.604)"><stop offset="0" stop-color="#F2F2F2"/><stop offset=".31" stop-color="#E6E6E6"/><stop offset=".77" stop-color="#ccc"/></linearGradient><circle class="st23" cx="342.6" cy="39.2" r="35.9"/><linearGradient id="SVGID_21_" gradientUnits="userSpaceOnUse" x1="392.515" y1="577.455" x2="392.515" y2="505.679" gradientTransform="matrix(1 0 0 -1 0 727.604)"><stop offset="0" stop-color="#F2F2F2"/><stop offset=".31" stop-color="#E6E6E6"/><stop offset=".77" stop-color="#ccc"/></linearGradient><circle class="st24" cx="392.5" cy="186" r="35.9"/></svg>