<svg xmlns="http://www.w3.org/2000/svg" xmlns:xlink="http://www.w3.org/1999/xlink" viewBox="0 0 461.9 696.1" enable-background="new 0 0 461.9 696.1"><style type="text/css">.st0{fill:none;stroke:#00BEEF;stroke-width:2;stroke-miterlimit:10;} .st1{fill:none;stroke:#DFE5EA;stroke-miterlimit:10;} .st2{fill:url(#SVGID_1_);} .st3{fill:url(#SVGID_2_);} .st4{fill:url(#SVGID_3_);} .st5{fill:url(#SVGID_4_);} .st6{fill:url(#SVGID_5_);} .st7{fill:url(#SVGID_6_);} .st8{fill:url(#SVGID_7_);} .st9{fill:#DFE5EA;} .st10{fill:url(#SVGID_8_);} .st11{fill:url(#SVGID_9_);} .st12{fill:url(#SVGID_10_);} .st13{fill:#00BEEF;} .st14{fill:#F9FFFF;} .st15{opacity:0.78;fill:#FFFFFF;stroke:#00BEEF;stroke-miterlimit:10;} .st16{opacity:0.82;fill:#FFFFFF;stroke:#00BEEF;stroke-miterlimit:10;} .st17{opacity:0.6;fill:#FFFFFF;stroke:#00BEEF;stroke-miterlimit:10;} .st18{opacity:0.52;fill:#FFFFFF;stroke:#00BEEF;stroke-miterlimit:10;} .st19{fill:#0080B2;} .st20{fill:url(#SVGID_11_);} .st21{fill:#FFFFFF;stroke:#00BEEF;stroke-miterlimit:10;}</style><image width="476" height="375" xlink:href="6ACD4280.png" transform="translate(-13.455 343.589)" overflow="visible" opacity=".18"/><path class="st0" d="M62.7 544.1l19.6 11.4c2.1 1.2 4.6 1.2 6.7-.1l64.2-39.6c2-1.2 4.6-1.3 6.6-.1l31.1 17.9M282.1 575.1l15.5 9.2c2 1.1 4.5 1.1 6.5-.1l40.9-24.2c2-1.2 4.5-1.2 6.5-.1l21.5 11.9M124.6 504.6l10.4 6.3c2 1.2 4.5 1.2 6.5.1l14.6-8.2c2-1.1 4.4-1.1 6.4.1l17.7 10.3"/><path class="st1" d="M188.6 465.7l12.7 8.2"/><path class="st0" d="M276.1 565.9l17.4 10c2.6 1.5 3.8 4.5 3 7.3l-3.3 12.1c-.8 2.9.5 5.9 3.1 7.4l40.5 22.6"/><path class="st0" d="M152.3 557l93.1 53.7c1 .5 2.4.6 3.3.1l93.3-53.8c1.5-.8 1.5-2.9 0-3.8l-93.7-54.1c-.7-.4-1.5-.4-2.2 0l-93.7 54.1c-1.5.8-1.5 2.9-.1 3.8zM1.5 539.8l45.8 26.5c.5.2 1.2.3 1.6 0l45.9-26.5c.7-.4.7-1.4 0-1.9l-46.2-26.7c-.3-.2-.7-.2-1.1 0l-46 26.8c-.7.4-.7 1.4 0 1.8zM218.4 668.4l45.8 26.5c.5.2 1.2.3 1.6 0l45.9-26.5c.7-.4.7-1.4 0-1.9l-46.2-26.7c-.3-.2-.7-.2-1.1 0l-46.2 26.7c-.5.5-.5 1.5.2 1.9zM284.1 629.5l45.9 26.5c.5.2 1.2.3 1.6 0l45.9-26.5c.7-.4.7-1.4 0-1.9l-46.1-26.6c-.3-.2-.7-.2-1.1 0l-46.2 26.7c-.7.4-.7 1.4 0 1.8zM349.8 590l45.8 26.5c.5.2 1.2.3 1.6 0l45.9-26.5c.7-.4.7-1.4 0-1.9l-46.2-26.7c-.3-.2-.7-.2-1.1 0l-46.2 26.7c-.5.5-.5 1.5.2 1.9zM67.3 501.3l45.8 26.5c.5.2 1.2.3 1.6 0l45.9-26.5c.7-.4.7-1.4 0-1.9l-46.2-26.7c-.3-.2-.7-.2-1.1 0l-46.2 26.7c-.6.5-.6 1.5.2 1.9zM131.6 463.4l45.8 26.5c.5.2 1.2.3 1.6 0l45.9-26.5c.7-.4.7-1.4 0-1.9l-46.2-26.7c-.3-.2-.7-.2-1.1 0l-46.2 26.7c-.5.5-.5 1.5.2 1.9zM263.2 570.1l11.7 7c4.2 2.5 4.2 8.5 0 11.1l-45.4 27.8c-4.2 2.6-4.1 8.7.1 11.1l31.8 18.5"/><linearGradient id="SVGID_1_" gradientUnits="userSpaceOnUse" x1="2543.271" y1="-822.838" x2="2543.271" y2="-661.315" gradientTransform="matrix(0 1 -1 0 -496.858 -2023.543)"><stop offset=".48" stop-color="#00BEEF"/><stop offset=".52" stop-color="#006787"/></linearGradient><path class="st2" d="M315.5 555.6v-71.7c0-2.8-1.5-5.4-3.9-6.8l-62.1-35.9c-2.4-1.4-5.4-1.4-7.8 0l-62.1 35.9c-2.4 1.4-3.9 4-3.9 6.8v71.7c0 2.8 1.5 5.4 3.9 6.8l62.1 35.9c2.4 1.4 5.4 1.4 7.8 0l62.1-35.9c2.4-1.4 3.9-4 3.9-6.8z"/><linearGradient id="SVGID_2_" gradientUnits="userSpaceOnUse" x1="2598.374" y1="-929.058" x2="2598.374" y2="-857.463" gradientTransform="matrix(0 1 -1 0 -496.858 -2023.543)"><stop offset=".48" stop-color="#00BEEF"/><stop offset=".52" stop-color="#006787"/></linearGradient><path class="st3" d="M427.5 590.2v-30.7c0-1.6-.8-3-2.2-3.8l-26.6-15.4c-1.4-.8-3-.8-4.4 0l-26.6 15.4c-1.4.8-2.2 2.2-2.2 3.8v30.7c0 1.6.8 3 2.2 3.8l26.6 15.4c1.4.8 3 .8 4.4 0l26.6-15.4c1.4-.8 2.2-2.2 2.2-3.8z"/><linearGradient id="SVGID_3_" gradientUnits="userSpaceOnUse" x1="2546.44" y1="-580.749" x2="2546.44" y2="-509.154" gradientTransform="matrix(0 1 -1 0 -496.858 -2023.543)"><stop offset=".48" stop-color="#00BEEF"/><stop offset=".52" stop-color="#006787"/></linearGradient><path class="st4" d="M79.2 538.3v-30.8c0-1.6-.8-3-2.2-3.8l-26.6-15.4c-1.4-.8-3-.8-4.4 0l-26.6 15.4c-1.4.8-2.2 2.2-2.2 3.8v30.8c0 1.6.8 3 2.2 3.8l26.6 15.4c1.4.8 3 .8 4.4 0l26.6-15.4c1.4-.8 2.2-2.3 2.2-3.8z"/><linearGradient id="SVGID_4_" gradientUnits="userSpaceOnUse" x1="2507.474" y1="-646.471" x2="2507.474" y2="-574.876" gradientTransform="matrix(0 1 -1 0 -496.858 -2023.543)"><stop offset=".48" stop-color="#00BEEF"/><stop offset=".52" stop-color="#006787"/></linearGradient><path class="st5" d="M145 499.3v-30.8c0-1.6-.8-3-2.2-3.8l-26.6-15.4c-1.4-.8-3-.8-4.4 0l-26.6 15.4c-1.4.8-2.2 2.2-2.2 3.8v30.8c0 1.6.8 3 2.2 3.8l26.6 15.4c1.4.8 3 .8 4.4 0l26.6-15.4c1.3-.8 2.2-2.2 2.2-3.8z"/><linearGradient id="SVGID_5_" gradientUnits="userSpaceOnUse" x1="2469.25" y1="-710.853" x2="2469.25" y2="-639.258" gradientTransform="matrix(0 1 -1 0 -496.858 -2023.543)"><stop offset=".48" stop-color="#00BEEF"/><stop offset=".52" stop-color="#006787"/></linearGradient><path class="st6" d="M209.3 461.1v-30.8c0-1.6-.8-3-2.2-3.8l-26.6-15.4c-1.4-.8-3-.8-4.4 0l-26.6 15.4c-1.4.8-2.2 2.2-2.2 3.8v30.8c0 1.6.8 3 2.2 3.8l26.6 15.4c1.4.8 3 .8 4.4 0l26.6-15.4c1.4-.8 2.2-2.3 2.2-3.8z"/><linearGradient id="SVGID_6_" gradientUnits="userSpaceOnUse" x1="2636.297" y1="-863.335" x2="2636.297" y2="-791.74" gradientTransform="matrix(0 1 -1 0 -496.858 -2023.543)"><stop offset=".48" stop-color="#00BEEF"/><stop offset=".52" stop-color="#006787"/></linearGradient><path class="st7" d="M361.8 628.1v-30.7c0-1.6-.8-3-2.2-3.8l-26.6-15.4c-1.4-.8-3-.8-4.4 0l-26.6 15.4c-1.4.8-2.2 2.2-2.2 3.8v30.7c0 1.6.8 3 2.2 3.8l26.6 15.4c1.4.8 3 .8 4.4 0l26.6-15.4c1.4-.8 2.2-2.2 2.2-3.8z"/><linearGradient id="SVGID_7_" gradientUnits="userSpaceOnUse" x1="2674.895" y1="-797.612" x2="2674.895" y2="-726.018" gradientTransform="matrix(0 1 -1 0 -496.858 -2023.543)"><stop offset=".48" stop-color="#00BEEF"/><stop offset=".52" stop-color="#006787"/></linearGradient><path class="st8" d="M296.1 666.7v-30.7c0-1.6-.8-3-2.2-3.8l-26.6-15.4c-1.4-.8-3-.8-4.4 0l-26.6 15.4c-1.4.8-2.2 2.2-2.2 3.8v30.7c0 1.6.8 3 2.2 3.8l26.6 15.4c1.4.8 3 .8 4.4 0l26.6-15.4c1.4-.8 2.2-2.2 2.2-3.8z"/><path class="st9" d="M151.8 432.9l24.1 13.9c1.4.8 3.6.8 5 0l24.1-13.9c2.2-1.3 2.2-4.4 0-5.7l-25-14.4c-1-.6-2.3-.6-3.3 0l-25 14.4c-2.1 1.3-2.1 4.5.1 5.7zM87.4 471.3l24.1 13.9c1.4.8 3.6.8 5 0l24.1-13.9c2.2-1.3 2.2-4.4 0-5.7l-25-14.4c-1-.6-2.3-.6-3.3 0l-25 14.4c-2.1 1.3-2.1 4.5.1 5.7zM178.2 482.2l65.8 38c.7.3 1.7.4 2.3.1l65.9-38.1c1-.6 1-2.1 0-2.7l-66.2-38.3c-.5-.3-1.1-.3-1.5 0l-66.3 38.3c-1.1.6-1.1 2.1 0 2.7z"/><linearGradient id="SVGID_8_" gradientUnits="userSpaceOnUse" x1="314.316" y1="445.22" x2="177.209" y2="445.22"><stop offset=".48" stop-color="#00BEEF"/><stop offset=".52" stop-color="#006787"/></linearGradient><path class="st10" d="M314.3 450.1v-9.8c0-1.4-.7-2.6-1.9-3.3l-64.7-37.4c-1.2-.7-2.6-.7-3.8 0l-64.8 37.4c-1.2.7-1.9 1.9-1.9 3.3v9.8c0 1.4.7 2.6 1.9 3.3l64.7 37.4c1.2.7 2.6.7 3.8 0l64.7-37.4c1.3-.6 2-1.9 2-3.3z"/><path class="st9" d="M181 442.3l62.5 36.1c1 .6 2.3.6 3.3 0l62.5-36.1c2.2-1.3 2.2-4.4 0-5.7l-62.5-36.1c-1-.6-2.3-.6-3.3 0l-62.5 36.2c-2.1 1.2-2.1 4.4 0 5.6z"/><linearGradient id="SVGID_9_" gradientUnits="userSpaceOnUse" x1="313.933" y1="422.014" x2="176.826" y2="422.014"><stop offset=".48" stop-color="#00BEEF"/><stop offset=".52" stop-color="#006787"/></linearGradient><path class="st11" d="M313.9 426.9v-9.8c0-1.4-.7-2.6-1.9-3.3l-64.7-37.4c-1.2-.7-2.6-.7-3.8 0l-64.7 37.4c-1.2.7-1.9 1.9-1.9 3.3v9.8c0 1.4.7 2.6 1.9 3.3l64.7 37.4c1.2.7 2.6.7 3.8 0l64.7-37.4c1.2-.7 1.9-1.9 1.9-3.3z"/><path class="st9" d="M181 418.9l62.5 36.1c1 .6 2.3.6 3.3 0l62.5-36.1c2.2-1.3 2.2-4.4 0-5.7l-62.5-36.1c-1-.6-2.3-.6-3.3 0l-62.5 36.2c-2.1 1.2-2.1 4.4 0 5.6z"/><linearGradient id="SVGID_10_" gradientUnits="userSpaceOnUse" x1="313.933" y1="398.543" x2="176.826" y2="398.543"><stop offset=".48" stop-color="#00BEEF"/><stop offset=".52" stop-color="#006787"/></linearGradient><path class="st12" d="M313.9 403.5v-9.8c0-1.4-.7-2.6-1.9-3.3l-64.7-37.4c-1.2-.7-2.6-.7-3.8 0l-64.7 37.4c-1.2.7-1.9 1.9-1.9 3.3v9.8c0 1.4.7 2.6 1.9 3.3l64.7 37.4c1.2.7 2.6.7 3.8 0l64.7-37.4c1.2-.7 1.9-2 1.9-3.3z"/><path class="st9" d="M181 395.3l62.5 36.1c1 .6 2.3.6 3.3 0l62.5-36.1c2.2-1.3 2.2-4.4 0-5.7l-62.5-36.1c-1-.6-2.3-.6-3.3 0l-62.5 36.2c-2.1 1.2-2.1 4.4 0 5.6zM21.6 510l24.1 13.9c1.4.8 3.6.8 5 0l24.1-13.9c2.2-1.3 2.2-4.4 0-5.7l-25-14.4c-1-.6-2.3-.6-3.3 0l-25 14.4c-2 1.3-2 4.5.1 5.7zM370 562l24.1 13.9c1.4.8 3.6.8 5 0l24.1-13.9c2.2-1.3 2.2-4.4 0-5.7l-25-14.4c-1-.6-2.3-.6-3.3 0l-25 14.4c-2.1 1.3-2.1 4.4.1 5.7zM304.2 599.8l24.1 13.9c1.4.8 3.6.8 5 0l24.1-13.9c2.2-1.3 2.2-4.4 0-5.7l-25-14.4c-1-.6-2.3-.6-3.3 0l-25 14.4c-2 1.3-2 4.5.1 5.7zM238.5 638.5l24.1 13.9c1.4.8 3.6.8 5 0l24.1-13.9c2.2-1.3 2.2-4.4 0-5.7l-25-14.4c-1-.6-2.3-.6-3.3 0l-25 14.4c-2.1 1.3-2.1 4.5.1 5.7z"/><path class="st13" d="M204.1 504.7l-14.9-8.3.1-2.7 14.9 8.3zM208.8 512.8l-14.9-8.3v-2.7l15 8.3zM214.4 521.4l-14.9-8.3v-2.7l14.9 8.3zM222.7 531.5l-15.9-8.8.1-2.7 15.9 8.8zM227.6 539.7l-20.9-11.6.1-2.7 20.9 11.6zM222.5 542.4l-15.9-8.8.1-2.7 15.9 8.8zM214 543.7l-15-8.3.1-2.7 14.9 8.3zM208.2 546l-15-8.3.1-2.7 14.9 8.3zM203.3 548.8l-15-8.3.1-2.7 14.9 8.3zM210.6 558.4l-14.9-8.3v-2.7l15 8.2zM218 567.9l-14.9-8.2v-2.8l14.9 8.3zM210.4 569.2l-14.9-8.2v-2.8l15 8.3zM202.8 570.5l-14.9-8.2.1-2.8 14.9 8.3zM26.2 526.8l-.2 7.8-.9-.5.1-3.5-3.6-2.1-.1 3.5-.9-.5.2-7.8.9.5-.1 3.3 3.6 2.1.1-3.3.9.5zM30.4 536.8c-.1.1-.3.1-.5 0-.2 0-.4-.1-.6-.2-.5-.3-.8-.6-1.1-1.1-.3-.5-.4-1-.4-1.6l.1-3.2-.8-.5v-.9l.8.5v-1.3l.9.5v1.3l1.4.8v.9l-1.4-.8-.1 3.2c0 .3.1.6.2.8.1.2.3.4.5.6.3.2.5.2.7.1l.3.9zM39 536.7c.3.6.5 1.4.5 2.2l-.1 3.4-.9-.5.1-3.3c0-.6-.1-1.1-.3-1.5-.2-.4-.5-.7-.9-1-.4-.3-.8-.3-1.1-.1-.3.2-.4.6-.4 1.2l-.1 3-.9-.5.1-3.3c0-.6-.1-1.1-.3-1.5-.2-.4-.5-.7-.9-1-.4-.3-.8-.3-1.1-.1-.3.2-.4.6-.4 1.2l-.1 3-.9-.5.1-5.9.8.5v.9c.2-.2.4-.3.7-.3.3 0 .6.1 1 .3.4.2.7.5 1 .8.3.4.5.7.6 1.2.2-.2.4-.4.8-.4.3 0 .7.1 1.1.3.7.8 1.2 1.3 1.6 1.9zM41.1 535l.9.5-.2 8.2-.9-.5.2-8.2zM307.5 623.7c-.8-.9-1.5-1.9-1.9-3-.5-1.1-.7-2.1-.7-3.1s.2-1.8.7-2.3c.5-.5 1.1-.8 2-.7.8 0 1.8.3 2.8.9.8.5 1.5 1 2.2 1.7.7.7 1.2 1.4 1.7 2.2l-1 .4c-.8-1.3-1.7-2.2-2.9-2.9-.8-.4-1.5-.7-2.1-.7-.6 0-1.1.2-1.4.6-.3.4-.5 1-.5 1.7s.2 1.5.5 2.3c.3.8.8 1.6 1.4 2.3.6.7 1.3 1.3 2.1 1.7 1.1.7 2.1.8 2.9.5l1 1.5c-.5.3-1 .3-1.7.2-.7-.1-1.4-.4-2.2-.9-1.1-.7-2-1.4-2.9-2.4zM322.6 626.5l-.4 2.6 2 1.2v1.1l-2.2-1.3-.3 2.5-1-.6.3-2.5-2.8-1.6-.3 2.5-1-.6.3-2.5-2-1.2v-1.1l2.2 1.3.4-2.6-2.1-1.2v-1.1l2.2 1.3.3-2.5 1 .6-.3 2.5 2.8 1.6.3-2.5 1 .6-.3 2.5 2 1.2v1.1l-2.1-1.3zm-1-.6l-2.8-1.6-.4 2.6 2.8 1.6.4-2.6zM379.4 579.8c.8 1.1 1.1 2.1 1.1 3.2s-.4 1.8-1.1 2c-.8.2-1.8-.1-3.1-.8l-2.5-1.4v3.1l-1.4-.8v-10.1l4 2.2c1.2.7 2.2 1.6 3 2.6zm-1.1 3.7c.5-.1.7-.5.7-1.3s-.2-1.4-.7-2.1c-.5-.7-1.2-1.3-2.1-1.8l-2.5-1.4v4.6l2.5 1.4c.9.6 1.6.8 2.1.6zM389.3 586.9l-3.7 6.4c-.3.6-.7.9-1.2 1-.4.1-1-.1-1.6-.4-.4-.2-.7-.5-1.1-.8-.4-.3-.6-.7-.9-1l.6-.7c.4.6.9 1 1.4 1.3.3.2.6.3.8.2.2-.1.4-.2.6-.6l.2-.4-3.4-9.6 1.4.8 2.7 7.6 2.7-4.7 1.5.9zM240.7 661.8c-.6-.7-1.1-1.4-1.4-2.1l1-.5c.6 1.3 1.4 2.3 2.4 2.9.6.4 1.1.5 1.5.3.3-.2.5-.7.5-1.4v-6.5l-4.2-2.7v-1.4l5.8 3.7v7.8c0 1.3-.3 2-.9 2.3-.6.3-1.5 0-2.7-.8-.7-.4-1.4-1-2-1.6zM250.5 668c-.8-.8-1.4-1.5-1.9-2.3l.6-.9c.4.7 1 1.4 1.7 2 .7.7 1.4 1.3 2.1 1.7 1 .6 1.7.9 2.1.9.5 0 .7-.3.7-.8 0-.4-.1-.8-.4-1.2-.3-.4-.6-.8-1-1.2-.4-.4-.9-.9-1.6-1.5-.9-.8-1.6-1.4-2.1-2-.5-.5-1-1.2-1.4-1.8-.4-.7-.6-1.4-.6-2.1 0-.6.2-1.1.5-1.4s.8-.4 1.5-.2c.7.1 1.5.5 2.5 1.1.7.4 1.4 1 2 1.5.7.6 1.2 1.2 1.7 1.8l-.5 1c-.5-.6-1-1.2-1.6-1.7-.6-.5-1.1-.9-1.6-1.3-.9-.6-1.6-.9-2.1-.8-.5 0-.7.3-.7.9 0 .4.1.8.4 1.2.3.4.6.8 1 1.2.4.4.9.9 1.6 1.5.9.8 1.6 1.4 2.1 2 .5.5 1 1.2 1.4 1.8.4.7.6 1.4.6 2.1 0 .6-.2 1.1-.5 1.3-.3.3-.8.4-1.5.2-.7-.1-1.5-.5-2.5-1.1-.9-.5-1.7-1.1-2.5-1.9zM89.9 494.8c-.7-.8-1.2-1.7-1.5-2.8-.4-1-.5-2-.5-3.1 0-1 .3-1.9.7-2.5.4-.6 1-1 1.7-1.1.7-.1 1.5 0 2.3.5.7.3 1.3.8 1.8 1.3.5.6 1 1.2 1.4 1.9l-.8.6c-.6-1.2-1.4-2-2.4-2.5-.6-.3-1.2-.4-1.7-.3-.5.1-.9.4-1.2.9-.3.5-.5 1.1-.5 1.9 0 .8.1 1.5.4 2.3.3.8.7 1.5 1.1 2.1.5.6 1.1 1.1 1.7 1.4.9.5 1.8.5 2.4-.1l.8 1.4c-.4.4-.9.5-1.5.5s-1.2-.2-1.8-.5c-1-.4-1.7-1-2.4-1.9zM97.1 498.9c-.5-.4-.9-.8-1.1-1.3l.5-.9c.3.4.6.8 1 1.1.4.4.8.6 1.2.8 1 .5 1.5.4 1.6-.3 0-.2-.1-.5-.2-.7-.1-.2-.3-.4-.5-.6-.2-.2-.5-.4-.9-.7-.5-.4-.9-.7-1.3-1-.3-.3-.6-.7-.8-1.1-.2-.4-.3-.9-.3-1.5 0-.7.3-1.2.8-1.4.5-.2 1.2-.1 2 .3.4.2.9.5 1.3.8.4.3.8.7 1 1.1l-.5.9c-.5-.7-1.1-1.2-1.8-1.6-.5-.2-.9-.3-1.1-.3-.3.1-.4.3-.4.6s.1.5.2.7c.1.2.3.4.5.6.2.2.5.4.9.7.5.4.9.7 1.2 1 .3.3.6.6.8 1.1.2.4.3.9.3 1.4 0 .7-.3 1.2-.8 1.4-.5.2-1.2.1-2.1-.4-.6 0-1.1-.3-1.5-.7zM103.2 501.9c-.5-.4-.9-.8-1.1-1.3l.5-.9c.3.4.6.8 1 1.1.4.4.8.6 1.2.8 1 .5 1.5.4 1.6-.3 0-.2-.1-.5-.2-.7-.1-.2-.3-.4-.5-.6-.2-.2-.5-.4-.9-.7-.5-.4-.9-.7-1.3-1-.3-.3-.6-.7-.8-1.1s-.3-.9-.3-1.5c0-.7.3-1.2.8-1.4.5-.2 1.2-.1 2 .3.4.2.9.5 1.3.8.4.3.8.7 1 1.1l-.5.9c-.5-.7-1.1-1.2-1.8-1.6-.5-.2-.9-.3-1.1-.3-.3.1-.4.3-.4.6s.1.5.2.7c.1.2.3.4.5.6.2.2.5.4.9.7.5.4.9.7 1.2 1 .3.3.6.6.8 1.1.2.4.3.9.3 1.4 0 .7-.3 1.2-.8 1.4-.5.2-1.2.1-2.1-.4-.6.1-1.1-.3-1.5-.7zM152.1 454.8c-.5-.5-.9-1-1.2-1.4l.4-.8c.3.5.6.9 1 1.3s.9.7 1.3 1c.6.3 1.1.4 1.4.3.3-.1.5-.4.5-.8 0-.3-.1-.6-.2-.9l-.6-.8c-.2-.2-.6-.5-1-.9-.5-.4-1-.8-1.3-1.2-.3-.3-.6-.7-.8-1.2-.2-.5-.3-1-.3-1.6 0-.5.1-.9.3-1.1.2-.3.5-.4 1-.4.4 0 .9.1 1.5.4.4.2.8.5 1.3.9.4.4.8.7 1 1.1l-.4.9c-.3-.4-.6-.7-1-1.1-.3-.3-.7-.5-1-.7-.6-.3-1-.4-1.3-.3-.3.1-.5.4-.5.8 0 .3.1.6.2.9l.6.8c.2.2.6.5 1 .9.5.4 1 .8 1.3 1.2.3.3.6.7.8 1.2.2.5.3 1 .3 1.5s-.1.9-.3 1.1c-.2.3-.5.4-1 .4-.4 0-.9-.1-1.6-.5-.4-.2-.9-.6-1.4-1zM161.7 453.7c.4.7.6 1.5.5 2.4l-.1 4.1-.9-.5v-.9c-.2.2-.4.4-.7.4s-.7-.1-1.1-.3c-.6-.3-1.1-.8-1.5-1.3s-.5-1.1-.5-1.7c0-.6.2-1 .6-1.2.4-.2.9-.1 1.7.3l1.6.8v-.2c0-.5-.1-1-.3-1.4-.2-.4-.6-.7-1.1-1-.3-.2-.6-.3-1-.3-.3 0-.6 0-.8.1l-.4-1.1c.3-.1.6-.2 1-.1s.8.2 1.3.4c.7.3 1.3.8 1.7 1.5zm-1.1 4.5c.3-.1.5-.3.6-.6v-1l-1.5-.8c-.8-.4-1.3-.3-1.3.4 0 .3.1.7.3 1 .2.3.5.6.9.8.4.2.7.2 1 .2zM164.2 461.1c-.4-.4-.7-.7-1-1.1l.4-.8c.2.3.5.7.9 1 .3.3.7.6 1 .7.9.4 1.3.4 1.3-.3 0-.2 0-.4-.2-.6l-.4-.5c-.2-.1-.4-.3-.7-.6-.4-.3-.8-.6-1.1-.9-.3-.3-.5-.6-.7-.9-.2-.4-.3-.8-.3-1.3 0-.6.2-1 .7-1.2.4-.2 1-.1 1.7.3.4.2.7.4 1.1.7.4.3.7.6.9.9l-.5.8c-.4-.6-1-1-1.6-1.4-.4-.2-.7-.3-1-.2-.2.1-.3.2-.3.5 0 .2.1.4.2.6.1.2.3.4.5.5.2.2.4.4.8.6.4.3.8.6 1.1.9.3.2.5.6.7.9s.3.8.3 1.2c0 .6-.2 1-.7 1.1-.4.1-1 0-1.7-.3-.5.1-.9-.2-1.4-.6zM169.4 463.8c-.4-.4-.7-.7-1-1.1l.4-.8c.2.3.5.7.9 1s.7.6 1 .7c.9.4 1.3.4 1.3-.3 0-.2 0-.4-.2-.6l-.4-.5c-.2-.1-.4-.3-.7-.6-.4-.3-.8-.6-1.1-.9-.3-.3-.5-.6-.7-.9-.2-.4-.3-.8-.3-1.3 0-.6.2-1 .7-1.2.4-.2 1-.1 1.7.3.4.2.7.4 1.1.7.4.3.7.6.9.9l-.5.8c-.4-.6-1-1-1.6-1.4-.4-.2-.7-.3-1-.2-.2.1-.3.2-.3.5 0 .2.1.4.2.6.1.2.3.4.5.5.2.2.4.4.8.6.4.3.8.6 1.1.9.3.2.5.6.7.9s.3.8.3 1.2c0 .6-.2 1-.7 1.1-.4.1-1 0-1.7-.3-.5.1-1-.2-1.4-.6z"/><path class="st14" d="M289.2 541.7l-2.9.4c-.2-1.1-.5-2.1-1-3l2.2-2.4c.6-.6.7-1.5.2-2l-2.8-2.7c-.5-.5-1.3-.3-1.9.3l-2.2 2.4c-.9-.4-2-.7-3-.9l.3-2.9c.1-.8-.5-1.3-1.2-1.2l-4.4.7c-.8.1-1.4.8-1.5 1.6l-.3 2.9c-1.1.5-2.2 1.1-3.3 1.8l-1.8-1.8c-.5-.5-1.3-.3-1.9.3l-3.4 3.6c-.6.6-.7 1.5-.2 2l1.8 1.8c-.7 1.1-1.2 2.3-1.6 3.4l-2.9.4c-.8.1-1.4.8-1.5 1.6l-.4 4.5c-.1.8.5 1.3 1.2 1.2l2.9-.4c.2 1.1.5 2.1 1 3l-2.2 2.4c-.6.6-.7 1.5-.2 2l2.8 2.7c.5.5 1.3.3 1.9-.3l2.2-2.4c.9.4 2 .7 3 .9l-.3 2.9c-.1.8.5 1.3 1.2 1.2l4.4-.7c.8-.1 1.4-.8 1.5-1.6l.3-2.9c1.1-.5 2.2-1.1 3.3-1.8l1.8 1.8c.5.5 1.3.3 1.9-.3l3.4-3.6c.6-.6.7-1.5.2-2l-1.8-1.8c.7-1.1 1.2-2.3 1.6-3.4l2.9-.4c.8-.1 1.4-.8 1.5-1.6l.4-4.5c.1-.7-.4-1.3-1.2-1.2zm-11.7 10.5c-3.1 3.3-7.6 4-10.1 1.5s-2.1-7.1 1-10.4c3.1-3.3 7.6-4 10.1-1.5s2.1 7.1-1 10.4zM308.3 530.1c.4-.2.6-.7.5-1.1l-.8-2.2c-.1-.4-.6-.5-1-.3l-1.6.9c-.4-.5-.8-.9-1.3-1.2l.8-1.7c.2-.4 0-.9-.3-1l-2.3-.6c-.4-.1-.9.2-1.1.6l-.8 1.7c-.6 0-1.3.1-2 .3l-.5-1.5c-.1-.4-.6-.5-1-.3l-2.4 1.4c-.4.2-.6.7-.5 1.1l.5 1.5c-.6.5-1.1 1-1.5 1.6l-1.5-.4c-.4-.1-.9.2-1.1.6l-1.2 2.5c-.2.4 0 .9.3 1l1.5.4c-.1.7-.2 1.3-.2 2l-1.6.9c-.4.2-.6.7-.5 1.1l.8 2.2c.1.4.6.5 1 .3l1.6-.9c.4.5.8.9 1.3 1.2l-.8 1.7c-.2.4 0 .9.3 1l2.3.6c.4.1.9-.2 1.1-.6l.8-1.7c.6 0 1.3-.1 2-.3l.5 1.5c.1.4.6.5 1 .3l2.4-1.4c.4-.2.6-.7.5-1.1l-.5-1.5c.6-.5 1.1-1 1.5-1.6l1.5.4c.4.1.9-.2 1.1-.6l1.2-2.5c.2-.4 0-.9-.3-1l-1.5-.4c.1-.7.2-1.3.2-2l1.6-.9zm-8.1 6.7c-2.2 1.2-4.5.6-5.2-1.4-.7-2 .5-4.6 2.7-5.9 2.2-1.2 4.5-.6 5.2 1.4.6 2.1-.6 4.7-2.7 5.9zM277 527.9c.1.3.5.4.8.2l1.3-.8c.3.4.7.7 1.1 1l-.6 1.4c-.2.4 0 .7.3.8l1.9.5c.3.1.7-.1.9-.5l.6-1.4c.5 0 1.1-.1 1.7-.3l.4 1.2c.1.3.5.4.8.2l2-1.2c.3-.2.5-.6.4-.9l-.4-1.2c.5-.4.9-.9 1.3-1.4l1.2.3c.3.1.7-.1.9-.5l1-2.1c.2-.4 0-.7-.3-.8l-1.2-.3c.1-.6.2-1.1.1-1.7l1.3-.8c.3-.2.5-.6.4-.9l-.7-1.9c-.1-.3-.5-.4-.8-.2l-1.3.8c-.3-.4-.7-.7-1.1-1l.6-1.4c.2-.4 0-.7-.3-.8l-1.9-.5c-.3-.1-.7.1-.9.5l-.6 1.4c-.5 0-1.1.1-1.7.3l-.4-1.2c-.1-.3-.5-.4-.8-.2l-2 1.2c-.4.2-.5.6-.4.9l.4 1.2c-.5.4-.9.9-1.3 1.4l-1.2-.3c-.3-.1-.7.1-.9.5l-1 2.1c-.2.4 0 .7.3.8l1.2.3c-.1.6-.2 1.1-.1 1.7l-1.3.8c-.3.2-.5.6-.4.9l.7 1.9zm6.6-8.6c1.8-1 3.8-.5 4.4 1.2.6 1.7-.4 3.9-2.3 5-1.8 1-3.8.5-4.4-1.2-.5-1.7.5-4 2.3-5z"/><path class="st15" d="M114.3 293.9l113.1 65.4c.3.2.6.2.9 0l156.8-88.5c.6-.4.6-1.3 0-1.6l-113.1-65.4c-.3-.2-.6-.2-.9 0l-156.8 88.5c-.6.3-.6 1.2 0 1.6z"/><path class="st16" d="M62 244.9l156.7 90.7c.4.2.9.2 1.3 0l217.4-122.6c.9-.5.9-1.7 0-2.2l-156.8-90.8c-.4-.2-.9-.2-1.3 0l-217.3 122.7c-.8.5-.8 1.7 0 2.2z"/><path class="st17" d="M152 340.8l76.5 44.2c.2.1.4.1.6 0l106-59.8c.4-.2.4-.9 0-1.1l-76.5-44.2c-.2-.1-.4-.1-.6 0l-106 59.8c-.4.2-.4.8 0 1.1z"/><path class="st18" d="M176.4 371.6l66.1 36.5c.1.1.3.1.4 0l69.8-39.3c.2-.1.2-.5 0-.6l-66.1-36.5c-.1-.1-.3-.1-.4 0l-69.8 39.3c-.3.1-.3.4 0 .6z"/><path class="st19" d="M216.5 296.3l-169.2-96.6 239.4-138.3 169.2 96.6z"/><linearGradient id="SVGID_11_" gradientUnits="userSpaceOnUse" x1="-1234.921" y1="3378.232" x2="-1075.92" y2="3378.232" gradientTransform="matrix(.866 .5 -1 .577 4631.806 -1190.951)"><stop offset=".01" stop-color="#2AF6FF"/><stop offset="1" stop-color="#4E00D4"/></linearGradient><path class="st20" d="M260 136.8l-8.8-5.1-4.4 2.5 8.8 5.1 4.4-2.5zm69.5 45.2l20.7 12 4.4-2.5-20.7-12-4.4 2.5zm-51.1-46.2l-24.3-14-4.4 2.5 24.3 14 4.4-2.5zm54.4 24.8l28.2 16.3 4.4-2.5-28.2-16.3-4.4 2.5zm4.7 14.3l19.7 11.4 4.4-2.5-19.7-11.4-4.4 2.5zm-48.9-51.5l5.4 3.1 4.4-2.5-5.4-3.1-4.4 2.5zm-16.6-2.9l-11.7-6.8-4.4 2.5 11.7 6.8 4.4-2.5zm15.1-9.5l11.7 6.8 4.4-2.5-11.7-6.8-4.4 2.5zm41.3 23.8l12.4 7.2 4.4-2.5-12.4-7.2-4.4 2.5zm-25.9-15l22.3 12.9 4.4-2.5-22.3-12.9-4.4 2.5zm51.1 9l-18.7-10.8-4.4 2.5 18.7 10.8 4.4-2.5zm-31.3-18.1l-24.3-14-4.4 2.5 24.3 14 4.4-2.5zm-27.9-16.1l-13.9-8-4.4 2.5 13.9 8 4.4-2.5zm70.3 56.1l-16-9.2-4.4 2.5 16 9.2 4.4-2.5zm-10.9 5.3l-4.4 2.5 15.3 8.8 4.4-2.5-15.3-8.8zm33.3 19.3l-14.4-8.3-4.4 2.5 14.4 8.3 4.4-2.5zm-11.9-18.5l-6.8-4-4.4 2.5 6.8 4 4.4-2.5zm-43.9-40.9l-5.4-3.1-4.4 2.5 5.4 3.1 4.4-2.5zm18.9 38l-7-4-4.4 2.5 7 4 4.4-2.5zm-40.3 16.8l16 9.2 4.4-2.5-16-9.2-4.4 2.5zm-34.4-71.5l-8.5-4.9-4.4 2.5 8.5 4.9 4.4-2.5zm37.7 50.1l16 9.2 4.4-2.5-16-9.2-4.4 2.5zm-52.6-42l24.3 14 4.4-2.5-24.3-14-4.4 2.5zm18.5-6l-4.4 2.5 8.8 5.1 4.4-2.5-8.8-5.1zm125.3 72.3l-26.2-15.2-4.4 2.5 26.2 15.2 4.4-2.5zm-117-32.6l-5.4-3.1-4.4 2.5 5.4 3.1 4.4-2.5zm-.7 4.6l18.7 10.8 4.4-2.5-18.8-10.8-4.3 2.5zm10.9-17l18.7 10.8 4.4-2.5-18.7-10.8-4.4 2.5zm22.3 12.9l15.3 8.8 4.4-2.5-15.3-8.8-4.4 2.5zm-10.9 17l15.3 8.8 4.4-2.5-15.3-8.8-4.4 2.5zm-15.2-20.4l15.8 9.1 4.4-2.5-15.8-9.1-4.4 2.5zm-19.2 12.1l22.3 12.9 4.4-2.5-22.3-12.9-4.4 2.5zm20-16.7l-18.9-10.9-4.4 2.5 18.9 10.9 4.4-2.5zm-35.4 7.9l11.7 6.8 4.4-2.5-11.7-6.8-4.4 2.5zm45.6 21.3l-4.4 2.5 5.9 3.4 4.4-2.5-5.9-3.4zm27.5 4.2l-4.4 2.5 6 3.4 4.4-2.5-6-3.4zm21.6 29.1l6.2 3.6 4.4-2.5-6.2-3.6-4.4 2.5zm36-19.1l-4.4 2.5 4.7 2.7 4.4-2.5-4.7-2.7zm-25 2.2l15.3 8.8 4.4-2.5-15.3-8.8-4.4 2.5zm9.4 12l-9.1-5.3-4.4 2.5 9.1 5.3 4.4-2.5zm-123.8-71.4l-13.7-7.9-4.4 2.5 13.7 7.9 4.4-2.5zm6.2-8.1l-9.8-5.7-4.4 2.5 9.8 5.7 4.4-2.5zm-9.1 18l-20.9-12-4.4 2.5 20.9 12 4.4-2.5zm13.8-26.9l-4.4-2.6-4.4 2.5 4.4 2.6 4.4-2.5zm-1.2 69.1l-18.7-10.8-4.4 2.5 18.7 10.8 4.4-2.5zm29.6-6.2l-18.7-10.8-4.4 2.5 18.7 10.8 4.4-2.5zm-79-5.6l18.9 10.9 4.4-2.5-18.9-10.9-4.4 2.5zm57.1 9.7l12.4 7.2 4.4-2.5-12.4-7.2-4.4 2.5zm-48.4 14.7l18.7 10.8 4.4-2.5-18.7-10.8-4.4 2.5zm13.8-11.4l15.8 9.1 4.4-2.5-15.8-9.1-4.4 2.5zm-13.1 6.8l-5.4-3.1-4.4 2.5 5.4 3.1 4.4-2.5zm19 27.6l4.4-2.5-5.9-3.4-4.4 2.5 5.9 3.4zm22.3-3.8l-15.3-8.8-4.4 2.5 15.3 8.8 4.4-2.5zm8.8 10.1l19.7 11.4 4.4-2.5-19.7-11.4-4.4 2.5zm-78.2-33.5l11.7 6.8 4.4-2.5-11.7-6.8-4.4 2.5zm87 2.5l-15.3-8.8-4.4 2.5 15.3 8.8 4.4-2.5zm-45 16.7l-22.3-12.9-4.4 2.5 22.3 12.9 4.4-2.5zm107.5-3.8l-18.7-10.8-4.4 2.5 18.7 10.8 4.4-2.5zm-38.1-5.4l6.8 4 4.4-2.5-6.8-4-4.4 2.5zm-14.6 3.2l15.3 8.8 4.4-2.5-15.3-8.8-4.4 2.5zm-51-34.5l-5.4-3.1-4.4 2.5 5.4 3.1 4.4-2.5zm40.4 28.4l7 4 4.4-2.5-7-4-4.4 2.5zm62.6 12.9l9.1 5.3 4.4-2.5-9.1-5.3-4.4 2.5zm-98.1-50.1l-11.7-6.8-4.4 2.5 11.7 6.8 4.4-2.5zm82.3 64.2l4.7 2.7 4.4-2.5-4.7-2.7-4.4 2.5zm-41.2-35.4l16 9.2 4.4-2.5-16-9.2-4.4 2.5zm35.4 3.8l-7-4-4.4 2.5 7 4 4.4-2.5zm-56.2 33.5l-16-9.2-4.4 2.5 16 9.2 4.4-2.5zm25.9-46l15.3 8.8 4.4-2.5-15.3-8.8-4.4 2.5zm-47-15.5l22.3 12.9 4.4-2.5-22.3-12.9-4.4 2.5zm25.5-1.9l-5.4-3.1-4.4 2.5 5.4 3.1 4.4-2.5zm-6.8 55.4l6 3.4 4.4-2.5-6-3.4-4.4 2.5zm47.2-3.8l14.4 8.3 4.4-2.5-14.4-8.3-4.4 2.5zm-78.1-68.4l24.3 14 4.4-2.5-24.3-14-4.4 2.5zm114.1 72.5l-26.2-15.2-4.4 2.5 26.2 15.2 4.4-2.5zm-129.6-69.8l8.8 5.1 4.4-2.5-8.8-5.1-4.4 2.5zm-14.1 3.5l24.3 14 4.4-2.5-24.3-14-4.4 2.5zm11 32.4l-24.3-14-4.4 2.5 24.3 14 4.4-2.5zm82.4 52.6l9.1 5.3 4.4-2.5-9.1-5.3-4.4 2.5zm-100.8-51.6l-8.8-5.1-4.4 2.5 8.8 5.1 4.4-2.5zm18.8-20.2l-11.7-6.8-4.4 2.5 11.7 6.8 4.4-2.5zm-10.7-17.8l-4.4-2.6-4.4 2.5 4.4 2.6 4.4-2.5zm14.2-3.5l-8.5-4.9-4.4 2.5 8.5 4.9 4.4-2.5zm-18.8 12.4l-9.8-5.7-4.4 2.5 9.8 5.7 4.4-2.5zm34.2-15.1l-13.9-8-4.4 2.5 13.9 8 4.4-2.5zm-50.1 37l-20.9-12-4.4 2.5 20.9 12 4.4-2.5zm2.9-10l-13.7-7.9-4.4 2.5 13.7 7.9 4.4-2.5zm47 98.4l15.3 8.8 4.4-2.5-15.3-8.8-4.4 2.5zm-14.7-25.2l-7-4-4.4 2.5 7 4 4.4-2.5zm-63.5-8.3l18.7 10.8 4.4-2.5-18.7-10.8-4.4 2.5zm46.9 10.4l-16-9.2-4.4 2.5 16 9.2 4.4-2.5zm53.5 19.2l-14.4-8.3-4.4 2.5 14.4 8.3 4.4-2.5zm-49.6-.3l19.7 11.4 4.4-2.5-19.7-11.4-4.4 2.5zm23.3 13.5l9.1 5.3 4.4-2.5-9.1-5.3-4.4 2.5zm43.6-14.8l-26.2-15.2-4.4 2.5 26.2 15.2 4.4-2.5zm-3.1-8.4l9.1 5.3 4.4-2.5-9.1-5.3-4.4 2.5zm-67.4 7.6l4.4-2.5-6-3.4-4.4 2.5 6 3.4zm41.5-22.5l4.4-2.5-7-4-4.4 2.5 7 4zm-84.4-53.8l-13.9-8-4.4 2.5 13.9 8 4.4-2.5zm74.3 77.8l-28.2-16.3-4.4 2.5 28.2 16.3 4.4-2.5zm20.3 5.1l4.7 2.7 4.4-2.5-4.7-2.7-4.4 2.5zm-82.3-64.2l-11.7-6.8-4.4 2.5 11.7 6.8 4.4-2.5zm-27.8-16l-8.5-4.9-4.4 2.5 8.5 4.9 4.4-2.5zm53.7 31l-22.3-12.9-4.4 2.5 22.3 12.9 4.4-2.5zm-30.8-6.2l-5.4-3.1-4.4 2.5 5.4 3.1 4.4-2.5zm2.1 41.2l5.9 3.4 4.4-2.5-5.9-3.4-4.4 2.5zm-39.1-62.5l-4.4-2.6-4.4 2.5 4.4 2.6 4.4-2.5zm52.6 42l-15.8-9.1-4.4 2.5 15.8 9.1 4.4-2.5zm55.1 20.2l-15.3-8.8-4.4 2.5 15.3 8.8 4.4-2.5zm-40.4-.1l-15.3-8.8-4.4 2.5 15.3 8.8 4.4-2.5zm35.3-9.5l6.8 4 4.4-2.5-6.8-4-4.4 2.5zm38.1 5.3l-18.7-10.8-4.4 2.5 18.7 10.8 4.4-2.5zm-127.5-10.4l22.3 12.9 4.4-2.5-22.3-12.9-4.4 2.5zm-52.2-30.1l20.9 12 4.4-2.5-20.9-12-4.4 2.5zm28.1-.5l-13.7-7.9-4.4 2.5 13.7 7.9 4.4-2.5zm89.1 28.2l-15.3-8.8-4.4 2.5 15.3 8.8 4.4-2.5zm-80.3-6.4l11.7 6.8 4.4-2.5-11.7-6.8-4.4 2.5zm18.4-1l5.4 3.1 4.4-2.5-5.4-3.1-4.4 2.5zm-30.8-6.2l8.8 5.1 4.4-2.5-8.8-5.1-4.4 2.5zm9.8-22.6l-9.8-5.7-4.4 2.5 9.8 5.7 4.4-2.5zm37.9 21.9l-18.9-10.9-4.4 2.5 18.9 10.9 4.4-2.5zm26.1 3.4l-18.7-10.8-4.4 2.5 18.7 10.8 4.4-2.5zm44.1 13.8l-16-9.2-4.4 2.5 16 9.2 4.4-2.5zm-19.6-11.3l-12.4-7.2-4.4 2.5 12.4 7.2 4.4-2.5zm-73.1-18.9l-11.7-6.8-4.4 2.5 11.7 6.8 4.4-2.5zm78.2 10.2l-18.7-10.8-4.4 2.5 18.7 10.8 4.4-2.5zm-71.9 5.1l-24.3-14-4.4 2.5 24.3 14 4.4-2.5zm31.6 34.9l16 9.2 4.4-2.5-16-9.2-4.4 2.5zm18-52.9l-5.4-3.1-4.4 2.5 5.4 3.1 4.4-2.5zm41.2 23.8l-15.3-8.8-4.4 2.5 15.3 8.8 4.4-2.5zm-78.9-40.5l24.3 14 4.4-2.5-24.3-14-4.4 2.5zm-15.5 2.7l8.8 5.1 4.4-2.5-8.8-5.1-4.4 2.5zm-14.1 3.5l24.3 14 4.4-2.5-24.3-14-4.4 2.5z"/><path class="st21" d="M213.4 243.4l-174.9-99.9 247.5-142.9 174.9 99.8z"/><path class="st13" d="M301.1 56.7l-25.3 14.6-36.4-21 25.3-14.6 36.4 21zm4.4 0l-40.8-23.6-29.7 17.1 40.8 23.6 29.7-17.1zM345.2 82.1l-25.3 14.6-36.4-21 25.3-14.6 36.4 21zm4.4 0l-40.8-23.6-29.7 17.1 40.8 23.6 29.7-17.1zM389.2 107.5l-25.3 14.6-36.4-21 25.3-14.6 36.4 21zm4.4 0l-40.8-23.6-29.7 17.1 40.8 23.6 29.7-17.1zM338.7 138.7l-128.4-74.2 4-2.3 128.5 74.2zM327.2 145.4l-128.4-74.2 4-2.3 128.5 74.1zM254.6 116.9l-67.5-39 4-2.3 67.5 39zM110.3 140.2c-.7-.6-1-1.3-1-2 0-.4.6-.8 1.3-.8.9 0 1.9-.1 2.8-.3.5.2 1.4.2 1.8 0 .5-.3.6-.6.4-.9 1.9-1.2 2.8-2.7.1-4.2-2.7-1.6-5.2-1.1-7.3 0-.4-.1-1.1 0-1.5.2-.5.3-.4.8-.1 1.1-.4.5-.5 1.1-.5 1.6 0 .4-.6.8-1.3.8-1.2 0-2.4-.2-3.5-.6-1.4-.5-3.3-.4-4.5.3l-2.1 1.2c-.4.2-.4.6 0 .9l11.3 6.5c.4.2 1.1.2 1.5 0l2.1-1.2c1.2-.7 1.4-1.8.5-2.6zM220.7 201.3l.8-.5 2.8.4c.5-.5.8-1 1.1-1.5l-2.4-.9c.1-.5.1-.9 0-1.4l2.4-.9c-.2-.5-.6-1-1.1-1.5l-2.8.4c-.2-.2-.5-.4-.8-.5l-.9-.5.7-1.6c-.8-.3-1.7-.5-2.6-.6l-1.5 1.4c-.8-.1-1.6-.1-2.4 0l-1.5-1.4c-.9.1-1.8.3-2.6.6l.7 1.6c-.3.1-.6.3-.9.5l-.8.5-2.8-.4c-.5.5-.8 1-1.1 1.5l2.4.9c-.1.5-.1.9 0 1.4l-2.4.9c.2.5.6 1 1.1 1.5l2.8-.4c.2.2.5.4.8.5l.9.5-.7 1.6c.8.3 1.7.5 2.6.6l1.5-1.4c.8.1 1.6.1 2.4 0l1.5 1.4c.9-.1 1.8-.3 2.6-.6l-.7-1.6c.3-.1.6-.3.9-.5zm-7.8-1.9c-1.2-.7-1.3-1.9 0-2.6 1.2-.7 3.3-.7 4.5 0 1.2.7 1.3 1.9 0 2.6-1.3.7-3.3.7-4.5 0zM128.1 156.9l3.5 2 6.3-3.6-3.5-2-6.3 3.6zm5.2 3l3.5 2 10.2-5.9-3.5-2-10.2 5.9zm19.4-5.2l-14.2 8.2 3.5 2 14.2-8.2-3.5-2zM188.9 175.7c-1.5-.9-3.6-1.1-5.5-.8.6-1.1.1-2.3-1.4-3.2-2.1-1.2-5.6-1.2-7.7 0-3.9 2.2-1.4 9.2-1.4 9.2s12.1 1.4 15.9-.8c2.2-1.2 2.2-3.1.1-4.4zM222.5 164.8l-60.9-35.2c-7.9-4.6-7.9-11.9-.1-16.5 7.8-4.5 20.6-4.5 28.5.1l60.9 35.2c7.9 4.6 7.9 11.9.1 16.5-7.8 4.4-20.6 4.4-28.5-.1zm-34.7-50.4c-6.7-3.9-17.5-3.9-24.1 0-6.6 3.8-6.6 10.1.1 13.9l60.9 35.2c6.7 3.9 17.5 3.9 24.1 0 6.6-3.8 6.6-10.1-.1-13.9l-60.9-35.2z"/></svg>