<svg xmlns="http://www.w3.org/2000/svg" viewBox="0 0 171 56.4" enable-background="new 0 0 171 56.4"><style type="text/css">.st0{fill:#0880B0;} .st1{fill:#00BDEF;}</style><path class="st0" d="M54.3 56.4h-21.9l-32.4-56.4h21.9z"/><path class="st1" d="M43.5 37.6h21.6l21.7-37.6h-21.6z"/><path class="st0" d="M65.1 37.6l-10.8 18.8h21.7z"/><path class="st1" d="M86.7 21.3h1.1v9.4h5.8v.9h-6.9v-10.3zM104.7 30.8v.9h-7.3v-10.4h7.1v.9h-6v3.8h5.4v.9h-5.4v3.9h6.2zM116.2 28.9h-5.8l-1.2 2.8h-1.2l4.7-10.4h1.1l4.7 10.4h-1.2l-1.1-2.8zm-.4-.9l-2.5-5.6-2.5 5.6h5zM129.3 22.3c.8.6 1.1 1.5 1.1 2.6s-.4 2-1.1 2.6c-.8.6-1.8.9-3.1.9h-2.8v3.3h-1.1v-10.4h3.9c1.3 0 2.4.3 3.1 1zm-.8 4.5c.5-.4.8-1.1.8-1.9 0-.8-.3-1.5-.8-1.9-.5-.4-1.3-.7-2.4-.7h-2.8v5.2h2.8c1.1 0 1.9-.3 2.4-.7zM93.7 37.1l-4.6 10.4h-1.1l-4.6-10.4h1.2l4 9 4-9h1.1zM104.8 46.6v.9h-7.3v-10.4h7.1v.9h-6v3.7h5.4v.9h-5.4v3.9h6.2zM116 47.5l-2.4-3.3h-3.5999999999999996v3.3h-1.1v-10.4h3.9c1.3 0 2.4.3 3.1.9.8.6 1.1 1.5 1.1 2.6 0 .8-.2 1.5-.6 2.1-.4.6-1 1-1.8 1.2l2.5 3.6h-1.1zm-.9-4.9c.5-.5.8-1.1.8-1.9 0-.8-.3-1.5-.8-1.9s-1.3-.7-2.4-.7h-2.7v5.2h2.8c1 0 1.8-.2 2.3-.7zM123.6 38.1h-3.6v-.9h8.4v.9h-3.6v9.4h-1.1v-9.4zM132.1 37.1h1.1v10.4h-1.1v-10.4zM140.3 46.9c-.8-.5-1.5-1.1-1.9-1.9-.5-.8-.7-1.7-.7-2.7 0-1 .2-1.9.7-2.7.5-.8 1.1-1.4 2-1.9.8-.5 1.8-.7 2.8-.7.8 0 1.5.1 2.1.4.7.3 1.2.6 1.7 1.1l-.7.7c-.8-.8-1.8-1.2-3.1-1.2-.8 0-1.6.2-2.2.6-.7.4-1.2.9-1.6 1.5-.4.7-.6 1.4-.6 2.2s.2 1.5.6 2.2c.4.7.9 1.2 1.6 1.5.7.4 1.4.6 2.2.6 1.2 0 2.3-.4 3.1-1.2l.7.7c-.5.5-1 .9-1.7 1.1-.7.3-1.4.4-2.1.4-1.2 0-2.1-.2-2.9-.7zM158 44.7h-5.8l-1.2 2.8h-1.1l4.7-10.4h1.1l4.7 10.4h-1.2l-1.2-2.8zm-.4-.9l-2.5-5.6-2.5 5.6h5zM164.1 37.1h1.1v9.4h5.8v.9h-6.9v-10.3z"/></svg>