<svg xmlns="http://www.w3.org/2000/svg" viewBox="0 0 171 56.8" enable-background="new 0 0 171 56.8"><style type="text/css">.st0{fill:#0080B2;} .st1{fill:#00BEEF;}</style><path class="st0" d="M54.6 56.8h-22l-32.6-56.8h22z"/><path class="st1" d="M43.8 37.9h21.8l21.8-37.9h-21.8z"/><path class="st0" d="M65.6 37.9l-11 18.9h21.9z"/><path class="st1" d="M87.3 21.5h.8v9.8h6v.7h-6.8v-10.5zM105.2 31.2v.7h-7.2v-10.4h7v.7h-6.2v4.1h5.6v.7h-5.6v4.3h6.4zM116.9 29h-6.1l-1.3 2.9h-.8l4.8-10.5h.8l4.8 10.5h-.8l-1.4-2.9zm-.3-.7l-2.7-6-2.7 6h5.4zM129.7 22.4c.7.6 1.1 1.5 1.1 2.6s-.4 2-1.1 2.6c-.7.6-1.8.9-3.1.9h-3v3.4h-.8v-10.4h3.7c1.5 0 2.5.3 3.2.9zm-.5 4.7c.6-.5.9-1.2.9-2.1 0-.9-.3-1.6-.9-2.1-.6-.5-1.4-.7-2.6-.7h-3v5.7h3c1.2-.1 2-.3 2.6-.8zM94.1 37.4l-4.7 10.5h-.8l-4.7-10.5h.8l4.2 9.5 4.2-9.5h1zM105.2 47.1v.7h-7.2v-10.4h7v.7h-6.2v4.1h5.6v.7h-5.6v4.3h6.4zM116.8 47.8l-2.5-3.5c-.4 0-.7.1-1 .1h-3v3.4h-.8v-10.4h3.7c1.3 0 2.3.3 3.1.9.7.6 1.1 1.5 1.1 2.6 0 .8-.2 1.5-.6 2.1-.4.6-1 1-1.8 1.2l2.6 3.7h-.8zm-3.6-4.1c1.1 0 2-.2 2.6-.7.6-.5.9-1.2.9-2.1 0-.9-.3-1.6-.9-2.1-.6-.5-1.4-.7-2.6-.7h-3v5.7h3zM124.1 38.1h-3.8v-.7h8.3v.7h-3.8v9.8h-.8v-9.8zM132.5 37.4h.8v10.5h-.8v-10.5zM140.5 47.2c-.8-.5-1.5-1.1-1.9-1.9-.5-.8-.7-1.7-.7-2.7s.2-1.9.7-2.7c.5-.8 1.1-1.4 1.9-1.9.8-.5 1.7-.7 2.8-.7.8 0 1.5.1 2.1.4.6.2 1.2.6 1.6 1.1l-.5.5c-.8-.8-1.9-1.2-3.2-1.2-.9 0-1.7.2-2.4.6-.7.4-1.3.9-1.7 1.6-.4.7-.6 1.5-.6 2.4 0 .9.2 1.6.6 2.4.4.7 1 1.3 1.7 1.6.7.4 1.5.6 2.4.6 1.3 0 2.4-.4 3.2-1.3l.5.5c-.4.5-1 .8-1.6 1.1-.6.2-1.3.4-2.1.4-1.1-.1-2-.3-2.8-.8zM158.2 44.9h-6.1l-1.3 2.9h-.8l4.8-10.5h.8l4.8 10.5h-.8l-1.4-2.9zm-.2-.7l-2.7-6-2.7 6h5.4zM164.3 37.4h.8v9.8h6v.7h-6.8v-10.5z"/></svg>