<svg xmlns="http://www.w3.org/2000/svg" viewBox="0 0 213.1 69.5" enable-background="new 0 0 213.1 69.5"><style type="text/css">.st0{fill:#0080B2;} .st1{fill:#00BEEF;}</style><path class="st0" d="M66.9 69.5h-27l-39.9-69.5h27z"/><path class="st1" d="M53.6 46.3h26.6l26.8-46.3h-26.7z"/><path class="st0" d="M80.2 46.3l-13.3 23.2h26.7z"/><path class="st1" d="M106.6 26.4h1.8v11.2h6.9v1.6h-8.8l.1-12.8zM129.3 37.6v1.6h-9.3v-12.8h9v1.6h-7.2v3.9h6.4v1.6h-6.4v4.1h7.5zM143.5 35.9h-6.8l-1.4 3.2h-1.9l5.8-12.8h1.8l5.8 12.8h-1.9l-1.4-3.2zm-.6-1.4l-2.8-6.3-2.7 6.3h5.5zM160.2 27.5c1 .8 1.4 1.9 1.4 3.3s-.5 2.5-1.4 3.3-2.3 1.2-3.9 1.2h-3.2v3.9h-1.8v-12.8h5c1.7-.1 3 .3 3.9 1.1zm-1.3 5.4c.6-.5.9-1.2.9-2.1 0-.9-.3-1.6-.9-2.1s-1.5-.7-2.7-.7h-3.1v5.7h3.1c1.3-.1 2.1-.3 2.7-.8zM115.8 45.7l-5.6 12.8h-1.8l-5.6-12.8h2l4.6 10.5 4.6-10.5h1.8zM129.6 56.9v1.6h-9.3v-12.8h9v1.6h-7.2v3.9h6.4v1.6h-6.4v4.1h7.5zM143.4 58.5l-2.8-3.9h-4v3.9h-1.8v-12.8h5c1.7 0 3 .4 3.9 1.2s1.4 1.9 1.4 3.3c0 1-.2 1.8-.7 2.5-.5.7-1.2 1.2-2.1 1.5l3 4.3h-1.9zm-1-6.2c.6-.5.9-1.2.9-2.1s-.3-1.6-.9-2.1c-.6-.5-1.5-.7-2.6-.7h-3.1v5.8h3.1c1.1-.1 2-.4 2.6-.9zM153.2 47.3h-4.4v-1.6h10.6v1.6h-4.4v11.2h-1.8v-11.2zM164 45.7h1.8v12.8h-1.8v-12.8zM174.5 57.8c-1-.6-1.8-1.3-2.4-2.3-.6-1-.9-2.1-.9-3.4 0-1.2.3-2.4.9-3.4.6-1 1.4-1.8 2.4-2.3s2.2-.8 3.5-.8c1 0 1.9.2 2.7.5.8.3 1.5.8 2.1 1.5l-1.2 1.2c-1-1-2.2-1.5-3.6-1.5-1 0-1.8.2-2.6.6-.8.4-1.4 1-1.8 1.8-.4.7-.6 1.6-.6 2.5s.2 1.8.6 2.5c.4.7 1 1.3 1.8 1.8.8.4 1.6.6 2.6.6 1.4 0 2.6-.5 3.6-1.5l1.2 1.2c-.6.7-1.3 1.2-2.1 1.5-.8.3-1.8.5-2.8.5-1.2-.1-2.4-.4-3.4-1zM196.5 55.3h-6.8l-1.4 3.2h-1.9l5.8-12.8h1.8l5.8 12.8h-1.9l-1.4-3.2zm-.6-1.4l-2.8-6.3-2.8 6.3h5.6zM204.3 45.7h1.8v11.2h6.9v1.6h-8.8v-12.8z"/></svg>