<svg xmlns="http://www.w3.org/2000/svg" viewBox="0 0 429.3 70.8" enable-background="new 0 0 429.3 70.8"><style type="text/css">.st0{fill:#0080B2;} .st1{fill:#00BEEF;}</style><path class="st0" d="M68.1 70.8h-27.5l-40.6-70.8h27.4l40.7 70.8z"/><path class="st1" d="M54.5 47.2h27.2l27.2-47.2h-27.1l-27.3 47.2z"/><path class="st0" d="M81.7 47.2l-13.6 23.6h27.2l-13.6-23.6z"/><path class="st1" d="M124.4 24.8h2.3v20.2h12.4v2h-14.8v-22.2zM163 45v2h-15.7v-22.2h15.2v2h-12.9v7.9h11.5v2h-11.5v8.3h13.4zM187.6 41.1h-12.4l-2.7 5.9h-2.4l10.1-22.2h2.3l10.3 22.2h-2.5l-2.7-5.9zm-.8-1.9l-5.3-11.9-5.3 11.9h10.6zM215.8 26.9c1.6 1.4 2.4 3.2 2.4 5.6 0 2.4-.8 4.2-2.4 5.6s-3.8 2-6.7 2h-6v7h-2.3v-22.3h8.3c2.8 0 5 .7 6.7 2.1zm-1.7 9.6c1.2-1 1.7-2.3 1.7-4.1 0-1.8-.6-3.2-1.7-4.1-1.2-1-2.8-1.4-5-1.4h-5.9v11.1h5.9c2.1 0 3.8-.5 5-1.5zM263.7 24.8l-9.9 22.2h-2.3l-9.8-22.2h2.5l8.5 19.3 8.6-19.3h2.4zM287.4 45v2h-15.7v-22.2h15.2v2h-12.9v7.9h11.5v2h-11.5v8.3h13.4zM311.4 47l-5.1-7.1c-.6.1-1.2.1-1.8.1h-6v7h-2.3v-22.2h8.3c2.8 0 5.1.7 6.7 2s2.4 3.2 2.4 5.6c0 1.7-.4 3.2-1.3 4.4-.9 1.2-2.1 2.1-3.8 2.6l5.5 7.6h-2.6zm-1.9-10.5c1.2-1 1.7-2.3 1.7-4.1 0-1.8-.6-3.2-1.7-4.1-1.2-1-2.8-1.4-5-1.4h-5.9v11.1h5.9c2.2 0 3.9-.5 5-1.5zM327.7 26.9h-7.8v-2h18v2h-7.8v20.1h-2.3v-20.1zM345.9 24.8h2.3v22.2h-2.3v-22.2zM363.5 45.8c-1.8-1-3.2-2.3-4.2-4-1-1.7-1.5-3.7-1.5-5.8 0-2.1.5-4.1 1.5-5.8 1-1.7 2.4-3.1 4.2-4 1.8-1 3.8-1.5 6-1.5 1.6 0 3.2.3 4.6.8 1.4.5 2.6 1.4 3.6 2.4l-1.5 1.5c-1.7-1.8-3.9-2.6-6.6-2.6-1.8 0-3.4.4-4.8 1.2-1.4.8-2.6 1.9-3.4 3.3-.8 1.4-1.2 3-1.2 4.7 0 1.7.4 3.3 1.2 4.7.8 1.4 1.9 2.5 3.4 3.3 1.4.8 3 1.2 4.8 1.2 2.7 0 4.9-.9 6.6-2.7l1.5 1.5c-1 1.1-2.2 1.9-3.6 2.4-1.4.6-2.9.8-4.6.8-2.3 0-4.2-.5-6-1.4zM401.4 41.1h-12.4l-2.7 5.9h-2.4l10.1-22.2h2.3l10.2 22.2h-2.5l-2.6-5.9zm-.9-1.9l-5.3-11.9-5.3 11.9h10.6zM414.6 24.8h2.3v20.2h12.4v2h-14.8v-22.2z"/></svg>