<svg xmlns="http://www.w3.org/2000/svg" viewBox="0 0 211.1 69.6" enable-background="new 0 0 211.1 69.6"><style type="text/css">.st0{fill:#0080B2;} .st1{fill:#00BEEF;}</style><path class="st0" d="M67 69.6h-27l-40-69.6h27z"/><path class="st1" d="M53.7 46.4h26.7l26.8-46.4h-26.8z"/><path class="st0" d="M80.4 46.4l-13.4 23.2h26.8zM107 26.3h1.4v11.7h7.2v1.2h-8.6v-12.9zM129.2 38v1.2h-9.1v-12.9h8.8v1.2h-7.4v4.6h6.6v1.2h-6.6v4.7h7.7zM143.4 35.7h-7.1l-1.5 3.4h-1.4l5.9-12.8h1.3l5.9 12.8h-1.4l-1.7-3.4zm-.5-1.1l-3.1-6.9-3.1 6.9h6.2zM159.6 27.5c.9.8 1.4 1.9 1.4 3.2 0 1.4-.5 2.4-1.4 3.2s-2.2 1.2-3.8 1.2h-3.4v4h-1.4v-12.8h4.8c1.6 0 2.9.4 3.8 1.2zm-1 5.6c.7-.6 1-1.3 1-2.4 0-1-.3-1.8-1-2.4-.7-.6-1.6-.8-2.9-.8h-3.4v6.4h3.4c1.3 0 2.3-.3 2.9-.8zM115.7 45.8l-5.7 12.8h-1.3l-5.7-12.8h1.5l4.9 11.1 4.9-11.1h1.4zM129.4 57.5v1.2h-9.1v-12.9h8.8v1.2h-7.4v4.6h6.6v1.2h-6.6v4.8h7.7zM143.2 58.6l-2.9-4.1-1 .1h-3.4v4.1h-1.4v-12.9h4.8c1.6 0 2.9.4 3.8 1.2.9.8 1.4 1.9 1.4 3.2 0 1-.3 1.8-.8 2.5s-1.2 1.2-2.2 1.5l3.1 4.4h-1.4zm-1.1-6c.7-.6 1-1.3 1-2.4 0-1-.3-1.8-1-2.4s-1.6-.8-2.9-.8h-3.4v6.4h3.4c1.3 0 2.3-.3 2.9-.8zM152.6 47h-4.5v-1.2h10.4v1.2h-4.5v11.6h-1.4v-11.6zM163 45.8h1.4v12.8h-1.4v-12.8zM173.2 57.9c-1-.6-1.8-1.3-2.4-2.3-.6-1-.9-2.1-.9-3.3 0-1.2.3-2.3.9-3.3.6-1 1.4-1.8 2.4-2.3 1-.6 2.2-.8 3.4-.8 1 0 1.8.2 2.6.5s1.5.8 2.1 1.4l-.9.9c-1-1-2.3-1.5-3.8-1.5-1 0-1.9.2-2.8.7-.8.5-1.5 1.1-1.9 1.9-.5.8-.7 1.7-.7 2.7 0 1 .2 1.9.7 2.7.5.8 1.1 1.4 1.9 1.9.8.5 1.8.7 2.8.7 1.5 0 2.8-.5 3.8-1.5l.9.9c-.6.6-1.2 1.1-2.1 1.4-.8.3-1.7.5-2.6.5-1.3-.3-2.4-.6-3.4-1.2zM195 55.2h-7.1l-1.5 3.4h-1.4l5.9-12.8h1.3l5.9 12.8h-1.4l-1.7-3.4zm-.5-1.1l-3.1-6.9-3.1 6.9h6.2zM202.6 45.8h1.4v11.6h7.2v1.2h-8.5v-12.8z"/></svg>